<svg xmlns="http://www.w3.org/2000/svg" version="1.1" xmlns:xlink="http://www.w3.org/1999/xlink" xmlns:svgjs="http://svgjs.dev/svgjs" width="2000" height="909" viewBox="0 0 2000 909"><g transform="matrix(1,0,0,1,-1.2121212121213603,-0.9675615678404483)"><svg viewBox="0 0 396 180" data-background-color="#ffffff" preserveAspectRatio="xMidYMid meet" height="909" width="2000" xmlns="http://www.w3.org/2000/svg" xmlns:xlink="http://www.w3.org/1999/xlink"><g id="tight-bounds" transform="matrix(1,0,0,1,0.24000000000003752,0.19159635006741382)"><svg viewBox="0 0 395.5199999999999 179.61680729986517" height="179.61680729986517" width="395.5199999999999"><g><svg viewBox="0 0 395.5199999999999 179.61680729986517" height="179.61680729986517" width="395.5199999999999"><g><svg viewBox="0 0 652.7177494229891 296.4175723586942" height="179.61680729986517" width="395.5199999999999"><g transform="matrix(1,0,0,1,255.22014942298918,91.5973323293291)"><svg viewBox="0 0 397.4975999999999 113.22290770003599" height="113.22290770003599" width="397.4975999999999"><g id="textblocktransform"><svg viewBox="0 0 397.4975999999999 113.22290770003599" height="113.22290770003599" width="397.4975999999999" id="textblock"><g><rect width="397.4975999999999" height="6.580141951600082" x="0" y="80.71739595655498" fill="#ffffff" opacity="1" stroke-width="0" stroke="transparent" fill-opacity="1" class="rect-qz-0" data-fill-palette-color="primary" rx="1%" id="qz-0" data-palette-color="#ffffff"></rect></g><g transform="matrix(1,0,0,1,0.9887999999999693,0)"><svg viewBox="0 0 395.52 72.96591983556011" height="72.96591983556011" width="395.52"><g transform="matrix(1,0,0,1,0,0)"><svg width="395.52" viewBox="0.5 -35.4 194.59 35.9" height="72.96591983556011" data-palette-color="#ffffff"><path d="M12.05 0.5L12.05 0.5Q10.6 0.5 9.33 0.35 8.05 0.2 7 0L7 0 0.5-3 3.5-10.6 12.75-7.4Q15.85-7.4 17.2-9.28 18.55-11.15 18.55-14.95L18.55-14.95 18.55-27.4 17.45-32.4 18-35.4 27.45-35.4 27.5-13.35Q27.5-6.65 23.5-3.08 19.5 0.5 12.05 0.5ZM40.5 0.5L40.5 0.5Q38.35 0.5 36.52-0.13 34.7-0.75 33.6-2.3 32.5-3.85 32.5-6.6L32.5-6.6Q32.5-9.1 33.75-10.75 35-12.4 37.15-13.2 39.3-14 42-14L42-14Q44.6-14 45.9-13.43 47.2-12.85 48.15-12.25L48.15-12.25 48.5-12.55Q48.5-14.05 48.25-15.05 48-16.05 47.1-16.57 46.2-17.1 44.3-17.1L44.3-17.1Q42.45-17.1 40.37-16.78 38.3-16.45 36.57-15.98 34.85-15.5 34-15.05L34-15.05 34-22.55Q35.55-23.1 38.42-23.58 41.3-24.05 45.5-24.05L45.5-24.05Q50-24.05 52.62-22.93 55.25-21.8 56.4-19.68 57.55-17.55 57.55-14.6L57.55-14.6 57.55-7.95 58.55-2.9 57.55 0.05 49 0.05 49-2.4 48.5-2.65Q48.1-2.25 47.1-1.5 46.1-0.75 44.45-0.13 42.8 0.5 40.5 0.5ZM44.75-6.05L44.75-6.05Q46.1-6.05 47.07-6.3 48.05-6.55 48.5-6.75L48.5-6.75 48.5-7.7Q48.5-8.35 47.57-8.95 46.65-9.55 44.7-9.55L44.7-9.55Q42-9.55 42-7.65L42-7.65Q42-6.85 42.6-6.45 43.2-6.05 44.75-6.05ZM63.55-15.05L62.55-20.55 64.09-23.6 71.55-23.6 71.55-21.45 72-21.15Q72.55-21.65 73.52-22.33 74.5-23 75.9-23.55 77.3-24.1 79.05-24.1L79.05-24.1Q84.25-24.1 86.5-20.65L86.5-20.65Q87.4-21.9 89.22-23.03 91.05-24.15 94.3-24.15L94.3-24.15Q98.8-24.15 101.05-21.6 103.3-19.05 103.3-14.45L103.3-14.45 103.3-8.05 104.34-3.05 103.3 0 94.3 0 94.3-13.15Q94.3-15.05 93.47-16.07 92.65-17.1 90.9-17.1L90.9-17.1Q89.75-17.1 88.9-16.25 88.05-15.4 88.05-14.1L88.05-14.1 88.05 0 79.05 0 79.05-13.1Q79.05-15 78.22-16.03 77.4-17.05 75.65-17.05L75.65-17.05 72.55-16.1 72.55 0 63.55 0 63.55-15.05ZM119.34 0L110.34 0 110.34-27.35 109.34-32.4 110.34-35.4 126.34-35.4Q129.99-35.4 132.92-34.27 135.84-33.15 137.57-30.48 139.29-27.8 139.29-23.1L139.29-23.1Q139.29-18.4 137.44-15.68 135.59-12.95 132.32-11.8 129.04-10.65 124.84-10.65L124.84-10.65 119.34-10.65 119.34-8.05 119.84-3.05 119.34 0ZM118.84-27.4L119.34-18.5 124.24-18.5Q126.84-18.5 128.39-19.48 129.94-20.45 129.94-23.1L129.94-23.1Q129.94-24.95 129.19-25.88 128.44-26.8 127.12-27.1 125.79-27.4 124.04-27.4L124.04-27.4 118.84-27.4ZM153.84 0.5L153.84 0.5Q147.74 0.5 144.39-2.4 141.04-5.3 141.04-11.8L141.04-11.8Q141.04-18.35 144.39-21.23 147.74-24.1 153.84-24.1L153.84-24.1Q160.09-24.1 163.32-21.23 166.54-18.35 166.54-11.8L166.54-11.8Q166.54-5.3 163.32-2.4 160.09 0.5 153.84 0.5ZM153.84-6L153.84-6Q155.89-6 156.69-7.53 157.49-9.05 157.49-11.8L157.49-11.8Q157.49-14.6 156.69-16.1 155.89-17.6 153.84-17.6L153.84-17.6Q151.74-17.6 150.92-16.1 150.09-14.6 150.09-11.8L150.09-11.8Q150.09-9.05 150.92-7.53 151.74-6 153.84-6ZM178.54 0.5L178.54 0.5Q176.19 0.5 174.01-0.7 171.84-1.9 170.44-4.5 169.04-7.1 169.04-11.3L169.04-11.3Q169.04-15.95 170.41-18.75 171.79-21.55 173.99-22.83 176.19-24.1 178.54-24.1L178.54-24.1Q182.09-24.1 183.56-23.5 185.04-22.9 185.04-22.9L185.04-22.9 184.54-32.35 185.04-35.35 194.09-35.35 194.09-8 195.09-3 194.09 0.05 185.54 0.05 185.54-2.4 185.04-2.65Q185.04-2.65 184.29-1.88 183.54-1.1 182.09-0.3 180.64 0.5 178.54 0.5ZM182.29-6.55L182.29-6.55 185.04-7.25 185.04-14.55Q185.04-15.7 184.29-16.38 183.54-17.05 182.29-17.05L182.29-17.05Q180.44-17.05 179.49-15.83 178.54-14.6 178.54-11.8L178.54-11.8Q178.54-9.05 179.64-7.8 180.74-6.55 182.29-6.55Z" opacity="1" transform="matrix(1,0,0,1,0,0)" fill="#ffffff" class="wordmark-text-0" data-fill-palette-color="primary" id="text-0"></path></svg></g></svg></g><g transform="matrix(1,0,0,1,0,95.04901402914993)"><svg viewBox="0 0 375.7439999999999 18.173893670886073" height="18.173893670886073" width="375.7439999999999"><g transform="matrix(1,0,0,1,0,0)"><svg width="375.7439999999999" viewBox="1.76 -39.6 1099.26 53.17" height="18.173893670886073" data-palette-color="#ffffff"><path d="M23.36-33.13L31.27-33.13 36.94-10.64 37.99-5.49 38.45-5.49 39.45-10.64 45.21-35.77 51.51-35.77 42.11 0 33.37 0 28.13-20 26.95-25.95 26.46-25.95 25.29-20 20.04 0 11.18 0 1.76-35.77 9.42-35.77 15.23-10.64 16.16-5.49 16.63-5.49 17.7-10.64 23.36-33.13ZM57.13 0L57.13-39.11 64.33-39.11 64.33-21.73Q65.28-22.53 66.34-23.36 67.4-24.19 68.6-24.87 69.8-25.54 71.1-25.95 72.41-26.37 73.85-26.37L73.85-26.37Q75.58-26.37 77.02-25.72 78.46-25.07 79.5-23.89 80.54-22.71 81.11-21.04 81.69-19.38 81.69-17.33L81.69-17.33 81.69 0 74.48 0 74.48-16.41Q74.48-17.6 74.16-18.52 73.83-19.43 73.24-20.04 72.65-20.65 71.86-20.96 71.07-21.26 70.14-21.26L70.14-21.26Q68.58-21.26 67.16-20.47 65.74-19.68 64.33-18.41L64.33-18.41 64.33 0 57.13 0ZM111.35-5.83L111.35-2.54Q110.15-1.68 108.83-1.11 107.51-0.54 106.17-0.18 104.83 0.17 103.51 0.33 102.19 0.49 101 0.49L101 0.49Q98.07 0.49 95.65-0.34 93.23-1.17 91.5-2.78 89.77-4.39 88.81-6.73 87.86-9.06 87.86-12.06L87.86-12.06Q87.86-15.38 89-18.03 90.13-20.68 92.04-22.53 93.94-24.39 96.44-25.38 98.95-26.37 101.68-26.37L101.68-26.37Q104-26.37 105.98-25.63 107.95-24.9 109.39-23.45 110.83-22 111.64-19.85 112.45-17.7 112.45-14.87L112.45-14.87Q112.45-14.04 112.37-13.27 112.3-12.5 112.18-11.87L112.18-11.87 95.28-11.87Q95.28-10.03 95.93-8.67 96.58-7.3 97.76-6.4 98.95-5.49 100.62-5.05 102.29-4.61 104.32-4.61L104.32-4.61Q104.98-4.61 105.81-4.66 106.64-4.71 107.56-4.85 108.49-4.98 109.46-5.22 110.42-5.47 111.35-5.83L111.35-5.83ZM95.28-14.82L105.85-14.82Q105.85-16.53 105.46-17.81 105.07-19.09 104.39-19.95 103.71-20.8 102.78-21.22 101.85-21.63 100.78-21.63L100.78-21.63Q99.58-21.63 98.58-21.14 97.58-20.65 96.85-19.75 96.11-18.85 95.7-17.6 95.28-16.36 95.28-14.82L95.28-14.82ZM118.74 0L118.74-25.88 124.72-25.88 125.65-18.24Q126.02-18.92 126.4-19.62 126.77-20.31 127.13-20.94 127.48-21.56 127.78-22.05 128.07-22.53 128.26-22.8L128.26-22.8Q128.78-23.56 129.37-24.22 129.97-24.88 130.71-25.35 131.44-25.83 132.32-26.1 133.2-26.37 134.25-26.37L134.25-26.37Q134.95-26.37 135.73-26.18 136.52-26 137.13-25.61L137.13-25.61 136.35-19.09Q135.88-19.21 135.15-19.25 134.42-19.29 133.9-19.29L133.9-19.29Q132.51-19.29 131.34-18.93 130.17-18.58 129.19-17.96 128.22-17.33 127.41-16.48 126.6-15.63 125.94-14.65L125.94-14.65 125.94 0 118.74 0ZM163.39-5.83L163.39-2.54Q162.2-1.68 160.88-1.11 159.56-0.54 158.22-0.18 156.87 0.17 155.56 0.33 154.24 0.49 153.04 0.49L153.04 0.49Q150.11 0.49 147.7-0.34 145.28-1.17 143.54-2.78 141.81-4.39 140.86-6.73 139.91-9.06 139.91-12.06L139.91-12.06Q139.91-15.38 141.04-18.03 142.18-20.68 144.08-22.53 145.99-24.39 148.49-25.38 150.99-26.37 153.73-26.37L153.73-26.37Q156.04-26.37 158.02-25.63 160-24.9 161.44-23.45 162.88-22 163.69-19.85 164.49-17.7 164.49-14.87L164.49-14.87Q164.49-14.04 164.42-13.27 164.35-12.5 164.22-11.87L164.22-11.87 147.33-11.87Q147.33-10.03 147.98-8.67 148.62-7.3 149.81-6.4 150.99-5.49 152.66-5.05 154.34-4.61 156.36-4.61L156.36-4.61Q157.02-4.61 157.85-4.66 158.68-4.71 159.61-4.85 160.54-4.98 161.5-5.22 162.47-5.47 163.39-5.83L163.39-5.83ZM147.33-14.82L157.9-14.82Q157.9-16.53 157.51-17.81 157.12-19.09 156.44-19.95 155.75-20.8 154.82-21.22 153.9-21.63 152.82-21.63L152.82-21.63Q151.63-21.63 150.62-21.14 149.62-20.65 148.89-19.75 148.16-18.85 147.74-17.6 147.33-16.36 147.33-14.82L147.33-14.82ZM187.12 0L178.31-25.88 186.12-25.88 190.61-10.01 191.61-5.27 192.1-5.27 193.08-10.01 197.59-25.88 204.01-25.88 195.18 0 187.12 0ZM219.56 0.49L219.56 0.49Q216.36 0.49 213.96-0.54 211.55-1.56 209.93-3.31 208.31-5.05 207.49-7.36 206.67-9.67 206.67-12.23L206.67-12.23Q206.67-15.19 207.73-17.76 208.8-20.34 210.72-22.25 212.65-24.17 215.35-25.27 218.05-26.37 221.32-26.37L221.32-26.37Q224.49-26.37 226.91-25.34 229.33-24.32 230.96-22.57 232.6-20.83 233.43-18.51 234.26-16.19 234.26-13.6L234.26-13.6Q234.26-10.6 233.17-8.02 232.09-5.44 230.15-3.55 228.21-1.66 225.51-0.59 222.81 0.49 219.56 0.49ZM220.61-4.25L220.61-4.25Q221.96-4.25 223.09-4.81 224.23-5.37 225.06-6.45 225.89-7.52 226.34-9.06 226.79-10.6 226.79-12.55L226.79-12.55Q226.79-14.4 226.35-16.06 225.91-17.72 225.08-18.96 224.25-20.19 223.04-20.91 221.83-21.63 220.3-21.63L220.3-21.63Q218.9-21.63 217.77-21.04 216.63-20.46 215.83-19.36 215.02-18.26 214.57-16.71 214.12-15.16 214.12-13.26L214.12-13.26Q214.12-11.33 214.57-9.68 215.02-8.03 215.86-6.82 216.71-5.62 217.9-4.93 219.1-4.25 220.61-4.25ZM240.41 0L240.41-25.88 247.61-25.88 247.61 0 240.41 0ZM243.95-30.47L243.95-30.47Q243.02-30.47 242.27-30.76 241.51-31.05 240.96-31.56 240.41-32.06 240.1-32.74 239.8-33.42 239.8-34.2L239.8-34.2Q239.8-35.01 240.13-35.73 240.46-36.45 241.04-36.98 241.63-37.5 242.42-37.81 243.22-38.11 244.15-38.11L244.15-38.11Q245.07-38.11 245.83-37.82 246.59-37.52 247.14-37.01 247.69-36.5 247.99-35.8 248.3-35.11 248.3-34.33L248.3-34.33Q248.3-33.5 247.97-32.79 247.64-32.08 247.05-31.57 246.46-31.05 245.67-30.76 244.88-30.47 243.95-30.47ZM274.66-5.83L274.66-2.54Q272.71-0.95 270.55-0.23 268.39 0.49 265.97 0.49L265.97 0.49Q263.11 0.49 260.87-0.42 258.62-1.32 257.06-2.94 255.5-4.57 254.67-6.81 253.83-9.06 253.83-11.74L253.83-11.74Q253.83-14.97 254.99-17.66 256.15-20.36 258.17-22.29 260.18-24.22 262.9-25.29 265.63-26.37 268.78-26.37L268.78-26.37Q270.02-26.37 271.68-26.15 273.34-25.93 274.88-25.37L274.88-25.37 273.73-20.34 273.24-20.09Q272.83-20.39 272.26-20.67 271.68-20.95 271.02-21.15 270.36-21.36 269.66-21.5 268.95-21.63 268.24-21.63L268.24-21.63Q266.75-21.63 265.48-21.04 264.21-20.46 263.27-19.36 262.33-18.26 261.81-16.66 261.28-15.06 261.28-13.06L261.28-13.06Q261.28-10.91 261.88-9.33 262.48-7.74 263.55-6.69 264.63-5.64 266.09-5.13 267.56-4.61 269.31-4.61L269.31-4.61Q270.41-4.61 271.72-4.87 273.02-5.13 274.66-5.83L274.66-5.83ZM302.56-5.83L302.56-2.54Q301.37-1.68 300.05-1.11 298.73-0.54 297.39-0.18 296.04 0.17 294.73 0.33 293.41 0.49 292.21 0.49L292.21 0.49Q289.28 0.49 286.86-0.34 284.45-1.17 282.71-2.78 280.98-4.39 280.03-6.73 279.08-9.06 279.08-12.06L279.08-12.06Q279.08-15.38 280.21-18.03 281.35-20.68 283.25-22.53 285.16-24.39 287.66-25.38 290.16-26.37 292.89-26.37L292.89-26.37Q295.21-26.37 297.19-25.63 299.17-24.9 300.61-23.45 302.05-22 302.86-19.85 303.66-17.7 303.66-14.87L303.66-14.87Q303.66-14.04 303.59-13.27 303.52-12.5 303.39-11.87L303.39-11.87 286.5-11.87Q286.5-10.03 287.15-8.67 287.79-7.3 288.98-6.4 290.16-5.49 291.83-5.05 293.51-4.61 295.53-4.61L295.53-4.61Q296.19-4.61 297.02-4.66 297.85-4.71 298.78-4.85 299.71-4.98 300.67-5.22 301.64-5.47 302.56-5.83L302.56-5.83ZM286.5-14.82L297.07-14.82Q297.07-16.53 296.68-17.81 296.29-19.09 295.6-19.95 294.92-20.8 293.99-21.22 293.07-21.63 291.99-21.63L291.99-21.63Q290.8-21.63 289.79-21.14 288.79-20.65 288.06-19.75 287.33-18.85 286.91-17.6 286.5-16.36 286.5-14.82L286.5-14.82ZM308.3-1.27L309.45-6.25 309.88-6.52Q311.86-5.44 314-4.85 316.13-4.25 317.89-4.25L317.89-4.25Q320.02-4.25 321.12-5.09 322.21-5.93 322.21-7.15L322.21-7.15Q322.21-8.06 321.65-8.63 321.09-9.2 320.16-9.61 319.24-10.01 318.05-10.31 316.87-10.62 315.65-10.99 314.43-11.35 313.24-11.84 312.06-12.33 311.13-13.1 310.2-13.87 309.64-14.99 309.08-16.11 309.08-17.75L309.08-17.75Q309.08-19.6 309.86-21.18 310.64-22.75 312.13-23.91 313.62-25.07 315.78-25.72 317.94-26.37 320.7-26.37L320.7-26.37Q321.38-26.37 322.29-26.32 323.19-26.27 324.14-26.16 325.09-26.05 326.02-25.88 326.95-25.71 327.73-25.46L327.73-25.46 326.58-20.53 326.07-20.24Q325.27-20.61 324.4-20.87 323.53-21.14 322.69-21.3 321.85-21.46 321.09-21.55 320.33-21.63 319.72-21.63L319.72-21.63Q317.62-21.63 316.6-20.85 315.57-20.07 315.57-18.87L315.57-18.87Q315.57-17.94 316.15-17.36 316.72-16.77 317.65-16.36 318.58-15.94 319.76-15.64 320.94-15.33 322.19-14.98 323.43-14.62 324.62-14.15 325.8-13.67 326.73-12.9 327.66-12.13 328.23-11.02 328.81-9.91 328.81-8.28L328.81-8.28Q328.81-6.47 328.05-4.87 327.29-3.27 325.84-2.09 324.39-0.9 322.25-0.21 320.11 0.49 317.38 0.49L317.38 0.49Q316.31 0.49 315.15 0.38 313.99 0.27 312.81 0.05 311.64-0.17 310.49-0.5 309.35-0.83 308.3-1.27L308.3-1.27ZM345.13-8.54L345.13-25.88 352.34-25.88 352.34-9.64Q352.34-8.5 352.64-7.57 352.95-6.64 353.5-5.98 354.04-5.32 354.8-4.97 355.56-4.61 356.49-4.61L356.49-4.61Q357.22-4.61 357.94-4.85 358.66-5.08 359.33-5.48 360-5.88 360.64-6.41 361.27-6.93 361.83-7.52L361.83-7.52 361.83-25.88 369.03-25.88 369.03 0 363.05 0 362.1-4.3Q361.22-3.49 360.2-2.65 359.17-1.81 358.04-1.11 356.9-0.42 355.64 0.04 354.39 0.49 353.02 0.49L353.02 0.49Q351.48 0.49 350.05-0.11 348.62-0.71 347.54-1.86 346.45-3 345.79-4.69 345.13-6.37 345.13-8.54L345.13-8.54ZM376.75 0L376.75-25.88 382.73-25.88 383.66-21.56Q384.49-22.31 385.55-23.16 386.61-24 387.84-24.71 389.08-25.42 390.46-25.89 391.84-26.37 393.35-26.37L393.35-26.37Q395.13-26.37 396.61-25.71 398.09-25.05 399.12-23.86 400.16-22.68 400.73-21.01 401.31-19.34 401.31-17.33L401.31-17.33 401.31 0 394.11 0 394.11-16.38Q394.11-17.58 393.76-18.49 393.42-19.41 392.84-20.03 392.25-20.65 391.46-20.96 390.66-21.26 389.74-21.26L389.74-21.26Q388.17-21.26 386.76-20.46 385.34-19.65 383.95-18.41L383.95-18.41 383.95 0 376.75 0ZM409 0L409-25.88 416.2-25.88 416.2 0 409 0ZM412.54-30.47L412.54-30.47Q411.61-30.47 410.85-30.76 410.09-31.05 409.55-31.56 409-32.06 408.69-32.74 408.39-33.42 408.39-34.2L408.39-34.2Q408.39-35.01 408.71-35.73 409.04-36.45 409.63-36.98 410.22-37.5 411.01-37.81 411.8-38.11 412.73-38.11L412.73-38.11Q413.66-38.11 414.42-37.82 415.17-37.52 415.72-37.01 416.27-36.5 416.58-35.8 416.88-35.11 416.88-34.33L416.88-34.33Q416.88-33.5 416.55-32.79 416.22-32.08 415.64-31.57 415.05-31.05 414.26-30.76 413.46-30.47 412.54-30.47ZM426.08-7.84L426.08-21.14 420.88-21.14 421.37-24.34Q422.67-24.73 423.61-25.12 424.54-25.51 425.24-25.99 425.94-26.46 426.46-27.04 426.99-27.61 427.45-28.37 427.91-29.13 428.38-30.1 428.84-31.08 429.43-32.35L429.43-32.35 432.94-32.35 432.94-25.88 442.17-25.88 441.05-21.14 433.29-21.14 433.29-8.96Q433.29-6.57 434.57-5.59 435.85-4.61 438.17-4.61L438.17-4.61Q439.17-4.61 440.18-4.79 441.2-4.96 442.12-5.32L442.12-5.32 442.12-2.03Q440.34-0.76 438.25-0.13 436.17 0.49 434.04 0.49L434.04 0.49Q432.02 0.49 430.51-0.09 429.01-0.66 428.02-1.73 427.04-2.81 426.56-4.35 426.08-5.88 426.08-7.84L426.08-7.84ZM469.71-5.83L469.71-2.54Q468.51-1.68 467.19-1.11 465.88-0.54 464.53-0.18 463.19 0.17 461.87 0.33 460.55 0.49 459.36 0.49L459.36 0.49Q456.43 0.49 454.01-0.34 451.59-1.17 449.86-2.78 448.13-4.39 447.17-6.73 446.22-9.06 446.22-12.06L446.22-12.06Q446.22-15.38 447.36-18.03 448.49-20.68 450.4-22.53 452.3-24.39 454.8-25.38 457.31-26.37 460.04-26.37L460.04-26.37Q462.36-26.37 464.34-25.63 466.31-24.9 467.76-23.45 469.2-22 470-19.85 470.81-17.7 470.81-14.87L470.81-14.87Q470.81-14.04 470.73-13.27 470.66-12.5 470.54-11.87L470.54-11.87 453.64-11.87Q453.64-10.03 454.29-8.67 454.94-7.3 456.12-6.4 457.31-5.49 458.98-5.05 460.65-4.61 462.68-4.61L462.68-4.61Q463.34-4.61 464.17-4.66 465-4.71 465.92-4.85 466.85-4.98 467.82-5.22 468.78-5.47 469.71-5.83L469.71-5.83ZM453.64-14.82L464.22-14.82Q464.22-16.53 463.82-17.81 463.43-19.09 462.75-19.95 462.07-20.8 461.14-21.22 460.21-21.63 459.14-21.63L459.14-21.63Q457.94-21.63 456.94-21.14 455.94-20.65 455.21-19.75 454.47-18.85 454.06-17.6 453.64-16.36 453.64-14.82L453.64-14.82ZM501.37-3.78L501.37-3.78Q500.68-3.2 499.77-2.45 498.85-1.71 497.76-1.06 496.66-0.42 495.39 0.04 494.12 0.49 492.73 0.49L492.73 0.49Q491.19 0.49 489.93-0.1 488.67-0.68 487.79-1.67 486.92-2.66 486.44-3.98 485.96-5.3 485.96-6.74L485.96-6.74Q485.96-8.47 486.72-10.07 487.48-11.67 489.12-12.89 490.77-14.11 493.41-14.83 496.05-15.55 499.81-15.55L499.81-15.55 501.17-15.55 501.17-17.31Q501.17-19.38 499.87-20.51 498.56-21.63 496.41-21.63L496.41-21.63Q495.53-21.63 494.53-21.42 493.53-21.22 492.54-20.84 491.55-20.46 490.61-19.96 489.67-19.46 488.89-18.87L488.89-18.87 488.45-19.12 487.16-23.73Q490.21-25.22 492.88-25.79 495.56-26.37 498.02-26.37L498.02-26.37Q500.32-26.37 502.24-25.92 504.15-25.46 505.51-24.5 506.86-23.54 507.62-22 508.38-20.46 508.38-18.29L508.38-18.29 508.38-7.1Q508.38-6.69 508.44-6.25 508.5-5.81 508.69-5.44 508.89-5.08 509.23-4.85 509.57-4.61 510.13-4.61L510.13-4.61Q510.47-4.61 510.89-4.69 511.31-4.76 511.77-4.96L511.77-4.96 511.77-1.68Q510.3-0.66 508.85-0.09 507.4 0.49 506.03 0.49L506.03 0.49Q505.06 0.49 504.32 0.16 503.59-0.17 503.03-0.73 502.47-1.29 502.06-2.08 501.66-2.86 501.37-3.78ZM501.17-6.96L501.17-12.62 499.93-12.62Q497.68-12.62 496.28-12.3 494.87-11.99 494.09-11.41 493.31-10.84 493.02-10.06 492.73-9.28 492.73-8.37L492.73-8.37Q492.73-7.42 492.99-6.71 493.26-6.01 493.74-5.54 494.22-5.08 494.85-4.85 495.48-4.61 496.22-4.61L496.22-4.61Q497.27-4.61 498.48-5.1 499.68-5.59 501.17-6.96L501.17-6.96ZM516.65 0L516.65-25.88 522.63-25.88 523.56-21.56Q524.39-22.31 525.45-23.16 526.51-24 527.75-24.71 528.98-25.42 530.36-25.89 531.74-26.37 533.25-26.37L533.25-26.37Q535.03-26.37 536.51-25.71 537.99-25.05 539.02-23.86 540.06-22.68 540.64-21.01 541.21-19.34 541.21-17.33L541.21-17.33 541.21 0 534.01 0 534.01-16.38Q534.01-17.58 533.67-18.49 533.32-19.41 532.74-20.03 532.15-20.65 531.36-20.96 530.57-21.26 529.64-21.26L529.64-21.26Q528.08-21.26 526.66-20.46 525.24-19.65 523.85-18.41L523.85-18.41 523.85 0 516.65 0ZM566.43-7.54L566.43-20.7Q565.06-21.29 563.99-21.46 562.91-21.63 562.2-21.63L562.2-21.63Q560.37-21.63 558.99-20.94 557.61-20.24 556.69-19.03 555.76-17.82 555.28-16.19 554.81-14.55 554.81-12.7L554.81-12.7Q554.81-10.96 555.22-9.48 555.64-8.01 556.39-6.92 557.15-5.83 558.21-5.22 559.27-4.61 560.59-4.61L560.59-4.61Q562.11-4.61 563.61-5.4 565.11-6.18 566.43-7.54L566.43-7.54ZM566.43-25.81L566.43-39.11 573.63-39.11 573.63 0 567.6 0 566.72-4.17Q565.84-3.37 564.84-2.55 563.84-1.73 562.68-1.05 561.52-0.37 560.2 0.06 558.88 0.49 557.39 0.49L557.39 0.49Q555.05 0.49 553.19-0.55 551.34-1.59 550.05-3.3 548.75-5 548.07-7.23 547.38-9.45 547.38-11.79L547.38-11.79Q547.38-14.89 548.52-17.57 549.65-20.24 551.63-22.19 553.61-24.15 556.26-25.26 558.91-26.37 561.96-26.37L561.96-26.37Q563.28-26.37 564.46-26.18 565.65-26 566.43-25.81L566.43-25.81ZM591.62 0L591.62-25.88 597.6-25.88 598.53-21.56Q599.38-22.34 600.43-23.18 601.48-24.02 602.65-24.73 603.82-25.44 605.11-25.9 606.39-26.37 607.71-26.37L607.71-26.37Q608.95-26.37 610.07-25.98 611.2-25.59 612.11-24.91 613.03-24.24 613.72-23.34 614.42-22.44 614.81-21.41L614.81-21.41Q615.79-22.24 616.84-23.12 617.89-24 619.06-24.72 620.23-25.44 621.54-25.9 622.84-26.37 624.33-26.37L624.33-26.37Q626.16-26.37 627.63-25.66 629.09-24.95 630.12-23.73 631.14-22.51 631.69-20.85 632.24-19.19 632.24-17.29L632.24-17.29 632.24 0 625.04 0 625.04-16.38Q625.04-17.5 624.75-18.41 624.45-19.31 623.9-19.95 623.36-20.58 622.6-20.92 621.84-21.26 620.91-21.26L620.91-21.26Q620.16-21.26 619.47-21.04 618.79-20.83 618.12-20.45 617.45-20.07 616.79-19.53 616.13-18.99 615.45-18.38L615.45-18.38Q615.52-17.87 615.52-17.29L615.52-17.29 615.52 0 608.32 0 608.32-16.38Q608.32-17.5 608.01-18.41 607.71-19.31 607.16-19.95 606.61-20.58 605.85-20.92 605.09-21.26 604.17-21.26L604.17-21.26Q603.43-21.26 602.76-21.04 602.09-20.83 601.43-20.45 600.77-20.07 600.13-19.54 599.48-19.02 598.82-18.41L598.82-18.41 598.82 0 591.62 0ZM662-5.83L662-2.54Q660.8-1.68 659.49-1.11 658.17-0.54 656.82-0.18 655.48 0.17 654.16 0.33 652.85 0.49 651.65 0.49L651.65 0.49Q648.72 0.49 646.3-0.34 643.89-1.17 642.15-2.78 640.42-4.39 639.47-6.73 638.51-9.06 638.51-12.06L638.51-12.06Q638.51-15.38 639.65-18.03 640.78-20.68 642.69-22.53 644.59-24.39 647.1-25.38 649.6-26.37 652.33-26.37L652.33-26.37Q654.65-26.37 656.63-25.63 658.61-24.9 660.05-23.45 661.49-22 662.29-19.85 663.1-17.7 663.1-14.87L663.1-14.87Q663.1-14.04 663.03-13.27 662.95-12.5 662.83-11.87L662.83-11.87 645.94-11.87Q645.94-10.03 646.58-8.67 647.23-7.3 648.41-6.4 649.6-5.49 651.27-5.05 652.94-4.61 654.97-4.61L654.97-4.61Q655.63-4.61 656.46-4.66 657.29-4.71 658.22-4.85 659.14-4.98 660.11-5.22 661.07-5.47 662-5.83L662-5.83ZM645.94-14.82L656.51-14.82Q656.51-16.53 656.12-17.81 655.73-19.09 655.04-19.95 654.36-20.8 653.43-21.22 652.5-21.63 651.43-21.63L651.43-21.63Q650.23-21.63 649.23-21.14 648.23-20.65 647.5-19.75 646.77-18.85 646.35-17.6 645.94-16.36 645.94-14.82L645.94-14.82ZM669.4 0L669.4-39.11 676.6-39.11 676.6 0 669.4 0ZM695.66 0.49L695.66 0.49Q692.46 0.49 690.06-0.54 687.65-1.56 686.03-3.31 684.41-5.05 683.59-7.36 682.77-9.67 682.77-12.23L682.77-12.23Q682.77-15.19 683.83-17.76 684.9-20.34 686.82-22.25 688.75-24.17 691.45-25.27 694.15-26.37 697.42-26.37L697.42-26.37Q700.59-26.37 703.01-25.34 705.43-24.32 707.06-22.57 708.7-20.83 709.53-18.51 710.36-16.19 710.36-13.6L710.36-13.6Q710.36-10.6 709.27-8.02 708.19-5.44 706.25-3.55 704.31-1.66 701.61-0.59 698.91 0.49 695.66 0.49ZM696.71-4.25L696.71-4.25Q698.06-4.25 699.19-4.81 700.33-5.37 701.16-6.45 701.99-7.52 702.44-9.06 702.89-10.6 702.89-12.55L702.89-12.55Q702.89-14.4 702.45-16.06 702.01-17.72 701.18-18.96 700.35-20.19 699.14-20.91 697.93-21.63 696.39-21.63L696.39-21.63Q695-21.63 693.87-21.04 692.73-20.46 691.93-19.36 691.12-18.26 690.67-16.71 690.22-15.16 690.22-13.26L690.22-13.26Q690.22-11.33 690.67-9.68 691.12-8.03 691.96-6.82 692.81-5.62 694-4.93 695.2-4.25 696.71-4.25ZM734.04-7.54L734.04-20.7Q732.67-21.29 731.6-21.46 730.52-21.63 729.82-21.63L729.82-21.63Q727.98-21.63 726.6-20.94 725.23-20.24 724.3-19.03 723.37-17.82 722.89-16.19 722.42-14.55 722.42-12.7L722.42-12.7Q722.42-10.96 722.83-9.48 723.25-8.01 724-6.92 724.76-5.83 725.82-5.22 726.89-4.61 728.2-4.61L728.2-4.61Q729.72-4.61 731.22-5.4 732.72-6.18 734.04-7.54L734.04-7.54ZM734.04-25.81L734.04-39.11 741.24-39.11 741.24 0 735.21 0 734.33-4.17Q733.45-3.37 732.45-2.55 731.45-1.73 730.29-1.05 729.13-0.37 727.81 0.06 726.49 0.49 725.01 0.49L725.01 0.49Q722.66 0.49 720.81-0.55 718.95-1.59 717.66-3.3 716.36-5 715.68-7.23 715-9.45 715-11.79L715-11.79Q715-14.89 716.13-17.57 717.27-20.24 719.24-22.19 721.22-24.15 723.87-25.26 726.52-26.37 729.57-26.37L729.57-26.37Q730.89-26.37 732.07-26.18 733.26-26 734.04-25.81L734.04-25.81ZM748.93 0L748.93-25.88 756.13-25.88 756.13 0 748.93 0ZM752.47-30.47L752.47-30.47Q751.54-30.47 750.78-30.76 750.03-31.05 749.48-31.56 748.93-32.06 748.62-32.74 748.32-33.42 748.32-34.2L748.32-34.2Q748.32-35.01 748.65-35.73 748.98-36.45 749.56-36.98 750.15-37.5 750.94-37.81 751.74-38.11 752.66-38.11L752.66-38.11Q753.59-38.11 754.35-37.82 755.11-37.52 755.66-37.01 756.2-36.5 756.51-35.8 756.81-35.11 756.81-34.33L756.81-34.33Q756.81-33.5 756.49-32.79 756.16-32.08 755.57-31.57 754.98-31.05 754.19-30.76 753.4-30.47 752.47-30.47ZM785.84-5.83L785.84-2.54Q784.64-1.68 783.33-1.11 782.01-0.54 780.66-0.18 779.32 0.17 778 0.33 776.69 0.49 775.49 0.49L775.49 0.49Q772.56 0.49 770.14-0.34 767.73-1.17 765.99-2.78 764.26-4.39 763.31-6.73 762.35-9.06 762.35-12.06L762.35-12.06Q762.35-15.38 763.49-18.03 764.62-20.68 766.53-22.53 768.43-24.39 770.94-25.38 773.44-26.37 776.17-26.37L776.17-26.37Q778.49-26.37 780.47-25.63 782.45-24.9 783.89-23.45 785.33-22 786.13-19.85 786.94-17.7 786.94-14.87L786.94-14.87Q786.94-14.04 786.87-13.27 786.79-12.5 786.67-11.87L786.67-11.87 769.78-11.87Q769.78-10.03 770.42-8.67 771.07-7.3 772.25-6.4 773.44-5.49 775.11-5.05 776.78-4.61 778.81-4.61L778.81-4.61Q779.47-4.61 780.3-4.66 781.13-4.71 782.06-4.85 782.98-4.98 783.95-5.22 784.91-5.47 785.84-5.83L785.84-5.83ZM769.78-14.82L780.35-14.82Q780.35-16.53 779.96-17.81 779.57-19.09 778.88-19.95 778.2-20.8 777.27-21.22 776.34-21.63 775.27-21.63L775.27-21.63Q774.07-21.63 773.07-21.14 772.07-20.65 771.34-19.75 770.61-18.85 770.19-17.6 769.78-16.36 769.78-14.82L769.78-14.82ZM791.58-1.27L792.72-6.25 793.16-6.52Q795.14-5.44 797.28-4.85 799.41-4.25 801.17-4.25L801.17-4.25Q803.29-4.25 804.39-5.09 805.49-5.93 805.49-7.15L805.49-7.15Q805.49-8.06 804.93-8.63 804.37-9.2 803.44-9.61 802.51-10.01 801.33-10.31 800.14-10.62 798.92-10.99 797.7-11.35 796.52-11.84 795.34-12.33 794.41-13.1 793.48-13.87 792.92-14.99 792.36-16.11 792.36-17.75L792.36-17.75Q792.36-19.6 793.14-21.18 793.92-22.75 795.41-23.91 796.9-25.07 799.06-25.72 801.22-26.37 803.98-26.37L803.98-26.37Q804.66-26.37 805.56-26.32 806.47-26.27 807.42-26.16 808.37-26.05 809.3-25.88 810.23-25.71 811.01-25.46L811.01-25.46 809.86-20.53 809.35-20.24Q808.54-20.61 807.68-20.87 806.81-21.14 805.97-21.3 805.13-21.46 804.37-21.55 803.61-21.63 803-21.63L803-21.63Q800.9-21.63 799.88-20.85 798.85-20.07 798.85-18.87L798.85-18.87Q798.85-17.94 799.42-17.36 800-16.77 800.93-16.36 801.85-15.94 803.04-15.64 804.22-15.33 805.47-14.98 806.71-14.62 807.9-14.15 809.08-13.67 810.01-12.9 810.94-12.13 811.51-11.02 812.08-9.91 812.08-8.28L812.08-8.28Q812.08-6.47 811.33-4.87 810.57-3.27 809.12-2.09 807.66-0.9 805.53-0.21 803.39 0.49 800.66 0.49L800.66 0.49Q799.58 0.49 798.42 0.38 797.26 0.27 796.09 0.05 794.92-0.17 793.77-0.5 792.63-0.83 791.58-1.27L791.58-1.27ZM830.54-7.84L830.54-21.14 825.34-21.14 825.82-24.34Q827.12-24.73 828.06-25.12 829-25.51 829.69-25.99 830.39-26.46 830.91-27.04 831.44-27.61 831.9-28.37 832.37-29.13 832.83-30.1 833.29-31.08 833.88-32.35L833.88-32.35 837.4-32.35 837.4-25.88 846.62-25.88 845.5-21.14 837.74-21.14 837.74-8.96Q837.74-6.57 839.02-5.59 840.3-4.61 842.62-4.61L842.62-4.61Q843.62-4.61 844.63-4.79 845.65-4.96 846.58-5.32L846.58-5.32 846.58-2.03Q844.79-0.76 842.71-0.13 840.62 0.49 838.49 0.49L838.49 0.49Q836.47 0.49 834.97-0.09 833.46-0.66 832.48-1.73 831.49-2.81 831.01-4.35 830.54-5.88 830.54-7.84L830.54-7.84ZM866.81-3.78L866.81-3.78Q866.13-3.2 865.21-2.45 864.3-1.71 863.2-1.06 862.1-0.42 860.83 0.04 859.56 0.49 858.17 0.49L858.17 0.49Q856.63 0.49 855.37-0.1 854.12-0.68 853.24-1.67 852.36-2.66 851.88-3.98 851.41-5.3 851.41-6.74L851.41-6.74Q851.41-8.47 852.16-10.07 852.92-11.67 854.57-12.89 856.22-14.11 858.85-14.83 861.49-15.55 865.25-15.55L865.25-15.55 866.62-15.55 866.62-17.31Q866.62-19.38 865.31-20.51 864-21.63 861.86-21.63L861.86-21.63Q860.98-21.63 859.98-21.42 858.98-21.22 857.99-20.84 857-20.46 856.06-19.96 855.12-19.46 854.34-18.87L854.34-18.87 853.9-19.12 852.6-23.73Q855.65-25.22 858.33-25.79 861-26.37 863.47-26.37L863.47-26.37Q865.76-26.37 867.68-25.92 869.6-25.46 870.95-24.5 872.31-23.54 873.06-22 873.82-20.46 873.82-18.29L873.82-18.29 873.82-7.1Q873.82-6.69 873.88-6.25 873.94-5.81 874.14-5.44 874.33-5.08 874.67-4.85 875.02-4.61 875.58-4.61L875.58-4.61Q875.92-4.61 876.33-4.69 876.75-4.76 877.21-4.96L877.21-4.96 877.21-1.68Q875.75-0.66 874.29-0.09 872.84 0.49 871.48 0.49L871.48 0.49Q870.5 0.49 869.77 0.16 869.03-0.17 868.47-0.73 867.91-1.29 867.51-2.08 867.1-2.86 866.81-3.78ZM866.62-6.96L866.62-12.62 865.37-12.62Q863.13-12.62 861.72-12.3 860.32-11.99 859.54-11.41 858.76-10.84 858.46-10.06 858.17-9.28 858.17-8.37L858.17-8.37Q858.17-7.42 858.44-6.71 858.71-6.01 859.18-5.54 859.66-5.08 860.29-4.85 860.93-4.61 861.66-4.61L861.66-4.61Q862.71-4.61 863.92-5.1 865.13-5.59 866.62-6.96L866.62-6.96ZM882.09 0L882.09-39.11 889.29-39.11 889.29 0 882.09 0ZM907.75 0L899.18 0 890.49-13.5 900.16-25.73 907.07-25.73 897.42-14.55 907.75 0ZM933.77-5.83L933.77-2.54Q932.58-1.68 931.26-1.11 929.94-0.54 928.6-0.18 927.26 0.17 925.94 0.33 924.62 0.49 923.42 0.49L923.42 0.49Q920.49 0.49 918.08-0.34 915.66-1.17 913.93-2.78 912.19-4.39 911.24-6.73 910.29-9.06 910.29-12.06L910.29-12.06Q910.29-15.38 911.42-18.03 912.56-20.68 914.46-22.53 916.37-24.39 918.87-25.38 921.37-26.37 924.11-26.37L924.11-26.37Q926.43-26.37 928.4-25.63 930.38-24.9 931.82-23.45 933.26-22 934.07-19.85 934.87-17.7 934.87-14.87L934.87-14.87Q934.87-14.04 934.8-13.27 934.73-12.5 934.6-11.87L934.6-11.87 917.71-11.87Q917.71-10.03 918.36-8.67 919-7.3 920.19-6.4 921.37-5.49 923.04-5.05 924.72-4.61 926.74-4.61L926.74-4.61Q927.4-4.61 928.23-4.66 929.06-4.71 929.99-4.85 930.92-4.98 931.88-5.22 932.85-5.47 933.77-5.83L933.77-5.83ZM917.71-14.82L928.28-14.82Q928.28-16.53 927.89-17.81 927.5-19.09 926.82-19.95 926.13-20.8 925.21-21.22 924.28-21.63 923.2-21.63L923.2-21.63Q922.01-21.63 921.01-21.14 920.01-20.65 919.27-19.75 918.54-18.85 918.13-17.6 917.71-16.36 917.71-14.82L917.71-14.82ZM953.57 0L953.57-21.14 948.37-21.14 948.86-24.46 953.59-25.88 953.59-26.86Q953.59-29.49 954.39-31.81 955.18-34.13 956.71-35.86 958.23-37.6 960.48-38.6 962.72-39.6 965.63-39.6L965.63-39.6Q966.78-39.6 968.03-39.43 969.29-39.26 970.46-38.89L970.46-38.89 969.37-34.25 968.9-34.01Q968.19-34.4 967.35-34.63 966.51-34.86 965.61-34.86L965.61-34.86Q964.31-34.86 963.4-34.34 962.48-33.81 961.89-32.86 961.31-31.91 961.04-30.59 960.77-29.27 960.77-27.69L960.77-27.69 960.77-25.88 969.12-25.88 968-21.14 960.77-21.14 960.77 0 953.57 0ZM974.86 0L974.86-39.11 982.06-39.11 982.06 0 974.86 0ZM989.75 0L989.75-25.88 996.95-25.88 996.95 0 989.75 0ZM993.29-30.47L993.29-30.47Q992.36-30.47 991.6-30.76 990.84-31.05 990.3-31.56 989.75-32.06 989.44-32.74 989.14-33.42 989.14-34.2L989.14-34.2Q989.14-35.01 989.47-35.73 989.8-36.45 990.38-36.98 990.97-37.5 991.76-37.81 992.55-38.11 993.48-38.11L993.48-38.11Q994.41-38.11 995.17-37.82 995.92-37.52 996.47-37.01 997.02-36.5 997.33-35.8 997.63-35.11 997.63-34.33L997.63-34.33Q997.63-33.5 997.3-32.79 996.97-32.08 996.39-31.57 995.8-31.05 995.01-30.76 994.21-30.47 993.29-30.47ZM1017.89 2.1L1012.13 2.1Q1011.64 2.39 1011.13 2.76 1010.62 3.13 1010.19 3.56 1009.76 4 1009.48 4.52 1009.2 5.03 1009.2 5.62L1009.2 5.62Q1009.2 6.98 1010.76 7.9 1012.33 8.81 1015.28 8.81L1015.28 8.81Q1017.01 8.81 1018.34 8.48 1019.68 8.15 1020.58 7.59 1021.48 7.03 1021.95 6.32 1022.41 5.62 1022.41 4.83L1022.41 4.83Q1022.41 4.17 1022.08 3.66 1021.75 3.15 1021.15 2.81 1020.55 2.47 1019.72 2.28 1018.89 2.1 1017.89 2.1L1017.89 2.1ZM1008.25 1.59L1008.25 1.59Q1006.37 0.95 1005.3-0.06 1004.22-1.07 1004.22-2.37L1004.22-2.37Q1004.22-3.2 1004.67-3.94 1005.12-4.69 1005.87-5.33 1006.61-5.98 1007.55-6.57 1008.49-7.15 1009.45-7.71L1009.45-7.71Q1007.79-8.37 1006.65-9.3 1005.52-10.23 1004.81-11.33 1004.1-12.43 1003.79-13.64 1003.49-14.84 1003.49-16.04L1003.49-16.04Q1003.49-18.36 1004.5-20.26 1005.52-22.17 1007.21-23.52 1008.91-24.88 1011.14-25.62 1013.38-26.37 1015.82-26.37L1015.82-26.37Q1017.65-26.37 1019.38-25.95 1021.12-25.54 1022.34-24.78L1022.34-24.78Q1023.12-25.22 1024.31-25.55 1025.51-25.88 1027.17-25.88L1027.17-25.88 1031.1-25.88 1029.98-21.17 1025.22-21.17Q1025.36-20.97 1025.6-20.57 1025.83-20.17 1026.05-19.62 1026.27-19.07 1026.43-18.37 1026.58-17.68 1026.58-16.87L1026.58-16.87Q1026.58-14.77 1025.58-12.99 1024.58-11.21 1022.93-9.89 1021.29-8.57 1019.13-7.82 1016.97-7.08 1014.67-7.08L1014.67-7.08Q1013.94-7.08 1013.11-7.15L1013.11-7.15Q1012.77-6.96 1012.39-6.7 1012.01-6.45 1011.68-6.12 1011.35-5.79 1011.14-5.42 1010.94-5.05 1010.94-4.64L1010.94-4.64Q1010.94-3.93 1011.58-3.48 1012.23-3.03 1013.38-3.03L1013.38-3.03 1019.68-3.03Q1021.43-3.03 1023.11-2.64 1024.78-2.25 1026.1-1.44 1027.41-0.63 1028.21 0.57 1029 1.78 1029 3.39L1029 3.39Q1029 5.13 1028.01 6.93 1027.02 8.74 1025.08 10.22 1023.14 11.69 1020.25 12.63 1017.36 13.57 1013.55 13.57L1013.55 13.57Q1011.2 13.57 1009.18 13.18 1007.15 12.79 1005.66 12.06 1004.17 11.33 1003.33 10.29 1002.49 9.25 1002.49 7.93L1002.49 7.93Q1002.49 6.81 1003.07 5.86 1003.66 4.91 1004.53 4.13 1005.39 3.34 1006.39 2.71 1007.4 2.08 1008.25 1.59ZM1009.98-16.85L1009.98-16.85Q1009.98-15.67 1010.39-14.67 1010.79-13.67 1011.48-12.96 1012.18-12.26 1013.14-11.85 1014.11-11.45 1015.21-11.45L1015.21-11.45Q1016.26-11.45 1017.17-11.82 1018.09-12.18 1018.77-12.85 1019.46-13.53 1019.86-14.49 1020.26-15.45 1020.26-16.63L1020.26-16.63Q1020.26-17.8 1019.86-18.79 1019.46-19.78 1018.76-20.5 1018.06-21.22 1017.11-21.61 1016.16-22 1015.06-22L1015.06-22Q1014.01-22 1013.1-21.63 1012.18-21.26 1011.48-20.59 1010.79-19.92 1010.39-18.97 1009.98-18.02 1009.98-16.85ZM1035.32 0L1035.32-39.11 1042.52-39.11 1042.52-21.73Q1043.48-22.53 1044.54-23.36 1045.6-24.19 1046.8-24.87 1047.99-25.54 1049.3-25.95 1050.61-26.37 1052.05-26.37L1052.05-26.37Q1053.78-26.37 1055.22-25.72 1056.66-25.07 1057.7-23.89 1058.74-22.71 1059.31-21.04 1059.88-19.38 1059.88-17.33L1059.88-17.33 1059.88 0 1052.68 0 1052.68-16.41Q1052.68-17.6 1052.35-18.52 1052.02-19.43 1051.44-20.04 1050.85-20.65 1050.06-20.96 1049.26-21.26 1048.33-21.26L1048.33-21.26Q1046.77-21.26 1045.36-20.47 1043.94-19.68 1042.52-18.41L1042.52-18.41 1042.52 0 1035.32 0ZM1069.48-7.84L1069.48-21.14 1064.27-21.14 1064.76-24.34Q1066.06-24.73 1067-25.12 1067.94-25.51 1068.63-25.99 1069.33-26.46 1069.85-27.04 1070.38-27.61 1070.84-28.37 1071.31-29.13 1071.77-30.1 1072.23-31.08 1072.82-32.35L1072.82-32.35 1076.34-32.35 1076.34-25.88 1085.56-25.88 1084.44-21.14 1076.68-21.14 1076.68-8.96Q1076.68-6.57 1077.96-5.59 1079.24-4.61 1081.56-4.61L1081.56-4.61Q1082.56-4.61 1083.57-4.79 1084.59-4.96 1085.52-5.32L1085.52-5.32 1085.52-2.03Q1083.73-0.76 1081.65-0.13 1079.56 0.49 1077.43 0.49L1077.43 0.49Q1075.41 0.49 1073.91-0.09 1072.4-0.66 1071.42-1.73 1070.43-2.81 1069.95-4.35 1069.48-5.88 1069.48-7.84L1069.48-7.84ZM1096.35 0.49L1096.35 0.49Q1095.4 0.49 1094.58 0.13 1093.76-0.22 1093.14-0.84 1092.52-1.46 1092.17-2.29 1091.81-3.13 1091.81-4.08L1091.81-4.08Q1091.81-5.05 1092.19-5.91 1092.57-6.76 1093.2-7.4 1093.84-8.03 1094.68-8.39 1095.52-8.74 1096.47-8.74L1096.47-8.74Q1097.43-8.74 1098.24-8.37 1099.06-8.01 1099.68-7.39 1100.31-6.76 1100.66-5.92 1101.02-5.08 1101.02-4.13L1101.02-4.13Q1101.02-3.15 1100.64-2.31 1100.26-1.46 1099.61-0.84 1098.96-0.22 1098.12 0.13 1097.28 0.49 1096.35 0.49Z" opacity="1" transform="matrix(1,0,0,1,0,0)" fill="#ffffff" class="slogan-text-1" data-fill-palette-color="secondary" id="text-1"></path></svg></g></svg></g></svg></g></svg></g><g><svg viewBox="0 0 237.9946469318895 296.4175723586942" height="296.4175723586942" width="237.9946469318895"><g><svg xmlns="http://www.w3.org/2000/svg" xmlns:xlink="http://www.w3.org/1999/xlink" xml:space="preserve" version="1.1" style="shape-rendering:geometricPrecision;text-rendering:geometricPrecision;image-rendering:optimizeQuality;" viewBox="9.721771171086521 0 80.27822882891348 99.98492827249302" x="0" y="0" fill-rule="evenodd" clip-rule="evenodd" height="296.4175723586942" width="237.9946469318895" class="icon-icon-0" data-fill-palette-color="accent" id="icon-0"><g fill="#f44336" data-fill-palette-color="accent"><path class="" d="M86 24c-3-7-17-7-27-17 0-4 0-7 0-7l-11 0 0 67c-5-2-11-2-18 0-13 3-22 13-20 22 3 9 15 13 29 10 11-3 20-12 20-20l0 0c0 0 0-51 0-55 24 0 24 24 27 24 3 0 4-7 4-14-1-3-2-7-4-10z" fill="#f44336" fill-rule="nonzero" data-fill-palette-color="accent"></path></g></svg></g></svg></g></svg></g></svg></g><defs></defs></svg><rect width="395.5199999999999" height="179.61680729986517" fill="none" stroke="none" visibility="hidden"></rect></g></svg></g></svg>