<svg xmlns="http://www.w3.org/2000/svg" version="1.1" xmlns:xlink="http://www.w3.org/1999/xlink" xmlns:svgjs="http://svgjs.dev/svgjs" width="1500" height="1500" viewBox="0 0 1500 1500"><rect width="1500" height="1500" fill="#000000"></rect><g transform="matrix(0.6666666666666666,0,0,0.6666666666666666,249.39393939393938,531.053978588069)"><svg viewBox="0 0 396 173" data-background-color="#000000" preserveAspectRatio="xMidYMid meet" height="655" width="1500" xmlns="http://www.w3.org/2000/svg" xmlns:xlink="http://www.w3.org/1999/xlink"><g id="tight-bounds" transform="matrix(1,0,0,1,0.2400000000000091,0.24273672732229556)"><svg viewBox="0 0 395.52 172.5145265453554" height="172.5145265453554" width="395.52"><g><svg viewBox="0 0 636.4924485954173 277.6198255944892" height="172.5145265453554" width="395.52"><g transform="matrix(1,0,0,1,238.9948485954174,85.78855573183414)"><svg viewBox="0 0 397.4975999999999 106.04271413082094" height="106.04271413082094" width="397.4975999999999"><g id="textblocktransform"><svg viewBox="0 0 397.4975999999999 106.04271413082094" height="106.04271413082094" width="397.4975999999999" id="textblock"><g><rect width="397.4975999999999" height="6.147516284663268" x="0" y="75.41045614948654" fill="#ffffff" opacity="1" stroke-width="0" stroke="transparent" fill-opacity="1" class="rect-qz-0" data-fill-palette-color="primary" rx="1%" id="qz-0" data-palette-color="#ffffff"></rect></g><g transform="matrix(1,0,0,1,0.9887999999999693,0)"><svg viewBox="0 0 395.52 68.16861759425494" height="68.16861759425494" width="395.52"><g transform="matrix(1,0,0,1,0,0)"><svg width="395.52" viewBox="1.15 -40.43 244.76 42.19" height="68.16861759425494" data-palette-color="#ffffff"><path d="M4.15-8.79L4.15-8.79 1.15-8.79 1.15-10.55 4.15-10.55Q5.44-10.55 6.32-11.52 7.2-12.5 7.2-14.11L7.2-14.11 7.2-40.43 8.96-40.43 8.96-14.11Q8.96-11.79 7.57-10.29 6.18-8.79 4.15-8.79ZM4.15-5.27L4.15-5.27 1.15-5.27 1.15-7.03 4.15-7.03Q6.88-7.03 8.8-9.11 10.72-11.18 10.72-14.11L10.72-14.11 10.72-40.43 12.48-40.43 12.48-14.11Q12.48-10.45 10.05-7.86 7.62-5.27 4.15-5.27ZM4.15-1.76L4.15-1.76 1.15-1.76 1.15-3.52 4.15-3.52Q8.35-3.52 11.29-6.62 14.23-9.72 14.23-14.11L14.23-14.11 14.23-40.43 15.99-40.43 15.99-14.11Q15.99-10.77 14.42-7.92 12.84-5.08 10.11-3.42 7.37-1.76 4.15-1.76ZM4.15 1.76L4.15 1.76 1.15 1.76 1.15 0 4.15 0Q6.93 0 9.45-1.12 11.96-2.25 13.78-4.14 15.6-6.03 16.67-8.64 17.75-11.25 17.75-14.11L17.75-14.11 17.75-40.43 19.51-40.43 19.51-14.11Q19.51-10.89 18.3-7.96 17.09-5.03 15.03-2.89 12.96-0.76 10.12 0.5 7.28 1.76 4.15 1.76ZM48.95 0L48.95-17.33Q48.95-20.46 47.02-22.17 45.09-23.88 41.92-23.88L41.92-23.88Q39.23-23.88 37.3-22.02 35.37-20.17 35.37-17.58L35.37-17.58Q35.37-16.11 35.76-14.95 36.15-13.79 36.83-13.02 37.5-12.26 38.43-11.76 39.35-11.25 40.37-11.04 41.38-10.82 42.53-10.82L42.53-10.82Q45.31-10.82 47.6-12.18L47.6-12.18 47.6-10.42Q45.24-9.18 42.5-9.18L42.5-9.18Q40.74-9.18 39.19-9.66 37.64-10.13 36.37-11.1 35.1-12.06 34.36-13.73 33.62-15.41 33.62-17.58L33.62-17.58Q33.62-20.95 35.98-23.29 38.35-25.63 41.92-25.63L41.92-25.63Q45.85-25.63 48.28-23.43 50.71-21.22 50.71-17.33L50.71-17.33 50.71 0 48.95 0ZM54.22-17.33L54.22-17.33 54.22 0 52.46 0 52.46-17.33Q52.46-21.95 49.51-24.67 46.56-27.39 41.92-27.39L41.92-27.39Q37.62-27.39 34.74-24.54 31.86-21.68 31.86-17.58L31.86-17.58Q31.86-15.09 32.72-13.11 33.59-11.13 35.08-9.94 36.57-8.74 38.41-8.12 40.26-7.5 42.31-7.5L42.31-7.5Q45.09-7.5 47.6-8.79L47.6-8.79 47.6-6.93Q44.97-5.83 42.28-5.83L42.28-5.83Q39.87-5.83 37.69-6.58 35.52-7.32 33.81-8.75 32.1-10.18 31.1-12.46 30.1-14.75 30.1-17.58L30.1-17.58Q30.1-22.39 33.51-25.77 36.91-29.15 41.92-29.15L41.92-29.15Q45.43-29.15 48.22-27.72 51-26.29 52.61-23.58 54.22-20.87 54.22-17.33ZM57.74-17.33L57.74-17.33 57.74 0 55.98 0 55.98-17.33Q55.98-21.36 54.14-24.48 52.29-27.59 49.09-29.25 45.9-30.91 41.92-30.91L41.92-30.91Q38.13-30.91 35.01-29.11 31.88-27.32 30.11-24.27 28.34-21.22 28.34-17.58L28.34-17.58Q28.34-14.45 29.49-11.88 30.64-9.3 32.58-7.64 34.52-5.98 37-5.07 39.48-4.15 42.19-4.15L42.19-4.15Q44.94-4.15 47.6-5.3L47.6-5.3 47.6-3.52Q44.82-2.47 42.14-2.47L42.14-2.47Q37.91-2.47 34.37-4.37 30.83-6.27 28.71-9.77 26.58-13.26 26.58-17.58L26.58-17.58Q26.58-20.65 27.77-23.44 28.95-26.22 30.98-28.25 33.01-30.27 35.86-31.47 38.72-32.67 41.92-32.67L41.92-32.67Q46.38-32.67 49.99-30.76 53.59-28.86 55.66-25.34 57.74-21.83 57.74-17.33ZM61.25-17.33L61.25-17.33 61.25 0 59.49 0 59.49-17.33Q59.49-22.31 57.18-26.23 54.86-30.15 50.85-32.29 46.85-34.42 41.92-34.42L41.92-34.42Q37.18-34.42 33.25-32.15 29.32-29.88 27.07-26.01 24.83-22.14 24.83-17.58L24.83-17.58Q24.83-14.58 25.79-11.88 26.76-9.18 28.43-7.17 30.1-5.15 32.29-3.69 34.47-2.22 37-1.46 39.52-0.71 42.14-0.71L42.14-0.71Q45.02-0.71 47.6-1.81L47.6-1.81 47.6 0Q44.89 0.95 42.04 0.95L42.04 0.95Q39.08 0.95 36.29 0.12 33.49-0.71 31.11-2.33 28.73-3.96 26.93-6.16 25.12-8.37 24.09-11.33 23.07-14.28 23.07-17.58L23.07-17.58Q23.07-21.36 24.5-24.79 25.93-28.22 28.4-30.73 30.88-33.23 34.41-34.7 37.94-36.18 41.92-36.18L41.92-36.18Q45.97-36.18 49.53-34.81 53.1-33.45 55.69-31.02 58.27-28.59 59.76-25.05 61.25-21.51 61.25-17.33ZM88.06-21.97L88.06-21.97 88.06 0 86.3 0 86.3-21.97Q86.3-22.68 86.07-23.18 85.83-23.68 85.47-23.95 85.1-24.22 84.5-24.38 83.91-24.54 83.34-24.57 82.78-24.61 81.95-24.61 81.12-24.61 80.56-24.57 80-24.54 79.4-24.38 78.8-24.22 78.44-23.95 78.07-23.68 77.84-23.18 77.61-22.68 77.61-21.97L77.61-21.97 77.61 0 75.85 0 75.85-21.97Q75.85-26.37 81.95-26.37 88.06-26.37 88.06-21.97ZM91.57-21.97L91.57-21.97 91.57 0 89.81 0 89.81-21.97Q89.81-25.07 87.63-26.6 85.44-28.13 81.95-28.13 78.46-28.13 76.28-26.6 74.09-25.07 74.09-21.97L74.09-21.97 74.09 0 72.33 0 72.33-21.97Q72.33-24.54 73.65-26.37 74.97-28.2 77.11-29.04 79.24-29.88 81.95-29.88 84.66-29.88 86.8-29.04 88.94-28.2 90.25-26.37 91.57-24.54 91.57-21.97ZM95.09-21.97L95.09-21.97 95.09 0 93.33 0 93.33-21.97Q93.33-24.27 92.44-26.12 91.55-27.98 89.99-29.17 88.42-30.37 86.37-31.01 84.32-31.64 81.95-31.64 79.58-31.64 77.53-31.01 75.48-30.37 73.92-29.17 72.36-27.98 71.47-26.12 70.58-24.27 70.58-21.97L70.58-21.97 70.58 0 68.82 0 68.82-21.97Q68.82-24.63 69.86-26.81 70.89-28.98 72.68-30.41 74.46-31.84 76.85-32.62 79.24-33.4 81.95-33.4 84.66-33.4 87.06-32.62 89.45-31.84 91.23-30.41 93.01-28.98 94.05-26.81 95.09-24.63 95.09-21.97ZM98.6-21.97L98.6 0 96.85 0 96.85-21.97Q96.85-24.63 95.66-27.08 94.48-29.52 92.48-31.29 90.47-33.06 87.71-34.11 84.96-35.16 81.95-35.16L81.95-35.16Q77.83-35.16 74.47-33.61 71.11-32.06 69.09-29.02 67.06-25.98 67.06-21.97L67.06-21.97 67.06 0 65.3 0 65.3-21.97Q65.3-25.34 66.62-28.17 67.94-31.01 70.2-32.91 72.46-34.81 75.5-35.86 78.54-36.91 81.95-36.91L81.95-36.91Q88.01-36.91 92.45-33.86L92.45-33.86Q96.89-36.91 102.95-36.91L102.95-36.91Q106.37-36.91 109.41-35.86 112.45-34.81 114.7-32.91 116.96-31.01 118.28-28.17 119.6-25.34 119.6-21.97L119.6-21.97 119.6 0 117.84 0 117.84-21.97Q117.84-25.95 115.82-28.99 113.79-32.03 110.43-33.59 107.08-35.16 102.95-35.16L102.95-35.16Q97.77-35.16 93.92-32.71L93.92-32.71Q94.48-32.23 95.16-31.45L95.16-31.45Q98.51-33.4 102.95-33.4L102.95-33.4Q105.66-33.4 108.05-32.62 110.44-31.84 112.23-30.41 114.01-28.98 115.05-26.81 116.08-24.63 116.08-21.97L116.08-21.97 116.08 0 114.33 0 114.33-21.97Q114.33-24.27 113.43-26.12 112.54-27.98 110.98-29.17 109.42-30.37 107.37-31.01 105.32-31.64 102.95-31.64L102.95-31.64Q99.07-31.64 96.24-30.05L96.24-30.05Q96.67-29.37 97.11-28.54L97.11-28.54Q99.51-29.88 102.95-29.88L102.95-29.88Q105.66-29.88 107.8-29.04 109.93-28.2 111.25-26.37 112.57-24.54 112.57-21.97L112.57-21.97 112.57 0 110.81 0 110.81-21.97Q110.81-25.07 108.63-26.6 106.44-28.13 102.95-28.13L102.95-28.13Q99.78-28.13 97.8-26.95L97.8-26.95Q98.12-26.03 98.29-25.2L98.29-25.2Q99.82-26.37 102.95-26.37L102.95-26.37Q109.05-26.37 109.05-21.97L109.05-21.97 109.05 0 107.29 0 107.29-21.97Q107.29-22.68 107.06-23.18 106.83-23.68 106.46-23.95 106.1-24.22 105.5-24.38 104.9-24.54 104.34-24.57 103.78-24.61 102.95-24.61 102.12-24.61 101.56-24.57 101-24.54 100.4-24.38 99.8-24.22 99.43-23.95 99.07-23.68 98.84-23.18 98.6-22.68 98.6-21.97L98.6-21.97ZM137.66-17.38L137.66-19.14 147.87-19.14Q150.38-19.14 152.13-20.84 153.87-22.53 153.87-25.63L153.87-25.63Q153.87-27.95 152.04-29.8 150.21-31.64 147.87-31.64L147.87-31.64 132.78-31.64 132.78 0 131.02 0 131.02-33.4 147.87-33.4Q150.94-33.4 153.29-31.03 155.63-28.66 155.63-25.63L155.63-25.63Q155.63-21.9 153.36-19.64 151.09-17.38 147.87-17.38L147.87-17.38 137.66-17.38ZM137.66-13.87L137.66-15.63 147.87-15.63Q150.41-15.63 152.57-16.86 154.73-18.09 156.06-20.41 157.39-22.73 157.39-25.63L157.39-25.63Q157.39-29.39 154.52-32.28 151.65-35.16 147.87-35.16L147.87-35.16 129.26-35.16 129.26 0 127.51 0 127.51-36.91 147.87-36.91Q150.82-36.91 153.43-35.35 156.05-33.79 157.6-31.18 159.15-28.56 159.15-25.63L159.15-25.63Q159.15-22.31 157.59-19.59 156.02-16.87 153.45-15.37 150.87-13.87 147.87-13.87L147.87-13.87 137.66-13.87ZM137.66-10.35L137.66-12.11 147.87-12.11Q150.48-12.11 152.87-13.15 155.27-14.18 157.04-15.95 158.81-17.72 159.86-20.25 160.91-22.78 160.91-25.63L160.91-25.63Q160.91-29.05 159.12-32.07 157.34-35.08 154.33-36.88 151.31-38.67 147.87-38.67L147.87-38.67 125.75-38.67 125.75 0 123.99 0 123.99-40.43 147.87-40.43Q151.77-40.43 155.19-38.39 158.61-36.35 160.64-32.93 162.66-29.52 162.66-25.63L162.66-25.63Q162.66-22.17 161.47-19.25 160.27-16.33 158.24-14.4 156.22-12.48 153.53-11.41 150.85-10.35 147.87-10.35L147.87-10.35 137.66-10.35ZM136.3-28.13L136.3 0 134.54 0 134.54-29.88 147.87-29.88Q149.6-29.88 150.86-28.61 152.12-27.34 152.12-25.63L152.12-25.63Q152.12-20.9 147.87-20.9L147.87-20.9 137.66-20.9 137.66-22.66 147.87-22.66Q149.04-22.66 149.7-23.32 150.36-23.97 150.36-25.63L150.36-25.63Q150.36-26.71 149.64-27.42 148.92-28.13 147.87-28.13L147.87-28.13 136.3-28.13ZM179.96-22.55Q177.9-20.48 177.9-17.58 177.9-14.67 179.96-12.61 182.02-10.55 184.93-10.55 187.83-10.55 189.89-12.61 191.96-14.67 191.96-17.58 191.96-20.48 189.89-22.55 187.83-24.61 184.93-24.61 182.02-24.61 179.96-22.55ZM178.71-11.36Q176.14-13.94 176.14-17.58 176.14-21.22 178.71-23.79 181.29-26.37 184.93-26.37 188.56-26.37 191.14-23.79 193.72-21.22 193.72-17.58 193.72-13.94 191.14-11.36 188.56-8.79 184.93-8.79 181.29-8.79 178.71-11.36ZM177.47-25.02Q174.38-21.92 174.38-17.58 174.38-13.23 177.47-10.13 180.56-7.03 184.93-7.03 189.3-7.03 192.39-10.13 195.47-13.23 195.47-17.58 195.47-21.92 192.39-25.02 189.3-28.13 184.93-28.13 180.56-28.13 177.47-25.02ZM174.27-11.4Q172.62-14.23 172.62-17.58 172.62-20.92 174.27-23.75 175.92-26.59 178.75-28.23 181.58-29.88 184.93-29.88 188.27-29.88 191.1-28.23 193.94-26.59 195.58-23.75 197.23-20.92 197.23-17.58 197.23-14.23 195.58-11.4 193.94-8.57 191.1-6.92 188.27-5.27 184.93-5.27 181.58-5.27 178.75-6.92 175.92-8.57 174.27-11.4ZM171.97-23.03Q170.86-20.43 170.86-17.58 170.86-14.72 171.97-12.12 173.09-9.52 174.98-7.63 176.87-5.74 179.47-4.63 182.07-3.52 184.93-3.52 187.78-3.52 190.38-4.63 192.98-5.74 194.88-7.63 196.77-9.52 197.88-12.12 198.99-14.72 198.99-17.58 198.99-20.43 197.88-23.03 196.77-25.63 194.88-27.53 192.98-29.42 190.38-30.53 187.78-31.64 184.93-31.64 182.07-31.64 179.47-30.53 176.87-29.42 174.98-27.53 173.09-25.63 171.97-23.03ZM170.36-11.43Q169.11-14.36 169.11-17.58 169.11-20.8 170.36-23.73 171.62-26.66 173.73-28.77 175.84-30.88 178.77-32.14 181.7-33.4 184.93-33.4 188.15-33.4 191.08-32.14 194.01-30.88 196.12-28.77 198.23-26.66 199.49-23.73 200.75-20.8 200.75-17.58 200.75-14.36 199.49-11.43 198.23-8.5 196.12-6.38 194.01-4.27 191.08-3.02 188.15-1.76 184.93-1.76 181.7-1.76 178.77-3.02 175.84-4.27 173.73-6.38 171.62-8.5 170.36-11.43ZM168.74-24.4Q167.35-21.14 167.35-17.58 167.35-14.01 168.74-10.75 170.13-7.5 172.49-5.14 174.84-2.78 178.1-1.39 181.36 0 184.93 0 188.49 0 191.75-1.39 195.01-2.78 197.37-5.14 199.72-7.5 201.11-10.75 202.5-14.01 202.5-17.58 202.5-21.14 201.11-24.4 199.72-27.66 197.37-30.02 195.01-32.37 191.75-33.76 188.49-35.16 184.93-35.16 181.36-35.16 178.1-33.76 174.84-32.37 172.49-30.02 170.13-27.66 168.74-24.4ZM167.13-10.07Q165.59-13.65 165.59-17.58 165.59-21.51 167.13-25.09 168.67-28.66 171.25-31.25 173.84-33.84 177.42-35.38 181-36.91 184.93-36.91 188.86-36.91 192.43-35.38 196.01-33.84 198.6-31.25 201.19-28.66 202.72-25.09 204.26-21.51 204.26-17.58 204.26-13.65 202.72-10.07 201.19-6.49 198.6-3.91 196.01-1.32 192.43 0.22 188.86 1.76 184.93 1.76 181 1.76 177.42 0.22 173.84-1.32 171.25-3.91 168.67-6.49 167.13-10.07ZM228.48-10.55L218.74-10.55 218.74-24.61Q218.74-24.61 228.48-24.61L228.48-24.61Q231.19-24.61 233.13-22.56 235.07-20.51 235.07-17.63L235.07-17.63Q235.07-14.65 233.14-12.6 231.21-10.55 228.48-10.55L228.48-10.55ZM220.5-22.85L220.5-12.3 228.48-12.3Q230.46-12.3 231.86-13.84 233.26-15.38 233.26-17.63L233.26-17.63Q233.26-19.78 231.86-21.31 230.46-22.85 228.48-22.85L228.48-22.85 220.5-22.85ZM216.98-26.37L216.98-8.79 228.48-8.79Q231.95-8.79 234.41-11.36 236.88-13.94 236.88-17.63L236.88-17.63Q236.88-21.24 234.4-23.8 231.92-26.37 228.48-26.37L228.48-26.37 216.98-26.37ZM228.48-7.03L215.22-7.03 215.22-28.13 228.48-28.13Q232.65-28.13 235.67-25.04 238.68-21.95 238.68-17.63L238.68-17.63Q238.68-13.21 235.68-10.12 232.68-7.03 228.48-7.03L228.48-7.03ZM213.46-29.88L213.46-5.27 228.48-5.27Q231.7-5.27 234.46-6.91 237.22-8.54 238.85-11.4 240.49-14.26 240.49-17.63L240.49-17.63Q240.49-20.92 238.85-23.75 237.22-26.59 234.45-28.23 231.68-29.88 228.48-29.88L228.48-29.88 213.46-29.88ZM228.48-3.52L211.71-3.52 211.71-31.64 228.48-31.64Q232.17-31.64 235.35-29.76 238.54-27.88 240.42-24.65 242.3-21.41 242.3-17.63L242.3-17.63Q242.3-13.79 240.42-10.53 238.54-7.28 235.35-5.4 232.17-3.52 228.48-3.52L228.48-3.52ZM209.95-33.4L209.95-1.76 228.48-1.76Q232.65-1.76 236.24-3.87 239.83-5.98 241.97-9.64 244.1-13.31 244.1-17.63L244.1-17.63Q244.1-21.88 241.97-25.52 239.83-29.17 236.23-31.29 232.63-33.4 228.48-33.4L228.48-33.4 209.95-33.4ZM228.48 0L228.48 0 208.19 0 208.19-35.16 228.48-35.16Q233.12-35.16 237.13-32.8 241.15-30.44 243.53-26.4 245.91-22.36 245.91-17.63L245.91-17.63Q245.91-14.04 244.51-10.77 243.1-7.5 240.75-5.14 238.39-2.78 235.17-1.39 231.95 0 228.48 0Z" opacity="1" transform="matrix(1,0,0,1,0,0)" fill="#ffffff" class="wordmark-text-0" data-fill-palette-color="primary" id="text-0"></path></svg></g></svg></g><g transform="matrix(1,0,0,1,0,88.7998109893814)"><svg viewBox="0 0 349.44192 17.24290314143954" height="17.24290314143954" width="349.44192"><g transform="matrix(1,0,0,1,0,0)"><svg width="349.44192" viewBox="1.95 -39.6 1077.51 53.17" height="17.24290314143954" data-palette-color="#ffffff"><path d="M23.73-33.15L30.35-33.15 36.77-9.5 37.87-4.44 38.35-4.44 39.43-9.5 45.78-35.77 51.27-35.77 41.43 0 34.25 0 28.2-21.29 26.9-27.25 26.42-27.25 25.15-21.29 19.07 0 11.89 0 1.95-35.77 8.35-35.77 14.75-9.5 15.72-4.44 16.19-4.44 17.33-9.5 23.73-33.15ZM57.32 0L57.32-39.11 63.23-39.11 63.23-21.7Q64.13-22.51 65.22-23.33 66.31-24.15 67.51-24.83 68.72-25.51 70.07-25.94 71.41-26.37 72.85-26.37L72.85-26.37Q74.61-26.37 76.05-25.71 77.49-25.05 78.51-23.85 79.54-22.66 80.1-20.97 80.66-19.29 80.66-17.24L80.66-17.24 80.66 0 74.73 0 74.73-16.58Q74.73-17.9 74.36-18.88 74-19.87 73.36-20.53 72.73-21.19 71.84-21.52 70.94-21.85 69.92-21.85L69.92-21.85Q68.11-21.85 66.5-20.92 64.89-20 63.23-18.48L63.23-18.48 63.23 0 57.32 0ZM109.98-5.32L109.98-2.37Q108.91-1.61 107.66-1.07 106.42-0.54 105.1-0.18 103.78 0.17 102.47 0.33 101.17 0.49 100 0.49L100 0.49Q97.29 0.49 94.95-0.34 92.62-1.17 90.9-2.78 89.18-4.39 88.2-6.75 87.23-9.11 87.23-12.16L87.23-12.16Q87.23-15.41 88.33-18.04 89.42-20.68 91.27-22.52 93.11-24.37 95.54-25.37 97.97-26.37 100.61-26.37L100.61-26.37Q102.8-26.37 104.69-25.65 106.59-24.93 107.97-23.51 109.35-22.09 110.13-19.97 110.91-17.85 110.91-15.04L110.91-15.04Q110.91-14.36 110.85-13.59 110.79-12.82 110.64-12.08L110.64-12.08 93.35-12.08Q93.35-10.11 94.05-8.59 94.75-7.08 96.02-6.07 97.29-5.05 99.07-4.53 100.85-4 103-4L103-4Q103.61-4 104.43-4.05 105.24-4.1 106.17-4.25 107.1-4.39 108.08-4.65 109.05-4.91 109.98-5.32L109.98-5.32ZM93.35-14.97L105.41-14.97Q105.41-16.75 104.96-18.09 104.51-19.43 103.73-20.34 102.95-21.24 101.91-21.69 100.87-22.14 99.68-22.14L99.68-22.14Q98.33-22.14 97.19-21.61 96.04-21.07 95.19-20.1 94.33-19.14 93.84-17.82 93.35-16.5 93.35-14.97L93.35-14.97ZM117.67 0L117.67-25.88 122.45-25.88 123.28-18.16Q123.63-18.8 123.99-19.47 124.36-20.14 124.72-20.76 125.09-21.39 125.41-21.9 125.72-22.41 125.94-22.75L125.94-22.75Q126.46-23.51 127.1-24.18 127.75-24.85 128.51-25.33 129.26-25.81 130.14-26.09 131.02-26.37 132.05-26.37L132.05-26.37Q132.76-26.37 133.46-26.2 134.17-26.03 134.66-25.66L134.66-25.66 134.03-20.21Q133.59-20.34 133-20.37 132.41-20.41 131.95-20.41L131.95-20.41Q130.39-20.41 129.17-19.96 127.95-19.51 126.96-18.71 125.97-17.92 125.15-16.85 124.33-15.77 123.58-14.53L123.58-14.53 123.58 0 117.67 0ZM160.37-5.32L160.37-2.37Q159.29-1.61 158.05-1.07 156.8-0.54 155.48-0.18 154.16 0.17 152.86 0.33 151.55 0.49 150.38 0.49L150.38 0.49Q147.67 0.49 145.34-0.34 143.01-1.17 141.29-2.78 139.57-4.39 138.59-6.75 137.61-9.11 137.61-12.16L137.61-12.16Q137.61-15.41 138.71-18.04 139.81-20.68 141.65-22.52 143.5-24.37 145.93-25.37 148.35-26.37 150.99-26.37L150.99-26.37Q153.19-26.37 155.08-25.65 156.97-24.93 158.35-23.51 159.73-22.09 160.51-19.97 161.29-17.85 161.29-15.04L161.29-15.04Q161.29-14.36 161.23-13.59 161.17-12.82 161.03-12.08L161.03-12.08 143.74-12.08Q143.74-10.11 144.44-8.59 145.13-7.08 146.4-6.07 147.67-5.05 149.45-4.53 151.24-4 153.38-4L153.38-4Q153.99-4 154.81-4.05 155.63-4.1 156.56-4.25 157.49-4.39 158.46-4.65 159.44-4.91 160.37-5.32L160.37-5.32ZM143.74-14.97L155.8-14.97Q155.8-16.75 155.35-18.09 154.9-19.43 154.12-20.34 153.33-21.24 152.3-21.69 151.26-22.14 150.06-22.14L150.06-22.14Q148.72-22.14 147.57-21.61 146.43-21.07 145.57-20.1 144.72-19.14 144.23-17.82 143.74-16.5 143.74-14.97L143.74-14.97ZM185.14 0L175.89-25.88 182.43-25.88 187.53-8.98 188.58-4.49 189.07-4.49 190.07-8.98 195.25-25.88 200.84-25.88 191.56 0 185.14 0ZM216.36 0.49L216.36 0.49Q213.31 0.49 210.98-0.54 208.65-1.56 207.06-3.31 205.48-5.05 204.66-7.35 203.84-9.64 203.84-12.21L203.84-12.21Q203.84-15.16 204.89-17.74 205.94-20.31 207.83-22.23 209.72-24.15 212.34-25.26 214.95-26.37 218.07-26.37L218.07-26.37Q221.13-26.37 223.47-25.34 225.81-24.32 227.4-22.56 228.99-20.8 229.8-18.49 230.62-16.19 230.62-13.62L230.62-13.62Q230.62-10.64 229.56-8.07 228.5-5.49 226.59-3.59 224.69-1.68 222.08-0.6 219.46 0.49 216.36 0.49ZM217.39-3.74L217.39-3.74Q218.95-3.74 220.25-4.38 221.54-5.03 222.47-6.19 223.4-7.35 223.91-8.96 224.42-10.57 224.42-12.52L224.42-12.52Q224.42-14.43 223.92-16.16 223.42-17.9 222.47-19.23 221.52-20.56 220.15-21.35 218.78-22.14 217.05-22.14L217.05-22.14Q215.46-22.14 214.17-21.48 212.87-20.83 211.96-19.65 211.04-18.48 210.53-16.86 210.02-15.23 210.02-13.31L210.02-13.31Q210.02-11.38 210.52-9.64 211.02-7.91 211.97-6.59 212.92-5.27 214.29-4.5 215.66-3.74 217.39-3.74ZM237.19 0L237.19-25.88 243.12-25.88 243.12 0 237.19 0ZM240.14-30.98L240.14-30.98Q239.36-30.98 238.71-31.24 238.07-31.49 237.59-31.93 237.11-32.37 236.86-32.98 236.6-33.59 236.6-34.3L236.6-34.3Q236.6-35.03 236.88-35.66 237.16-36.28 237.66-36.76 238.16-37.23 238.83-37.5 239.51-37.77 240.29-37.77L240.29-37.77Q241.04-37.77 241.68-37.5 242.31-37.23 242.78-36.78 243.24-36.33 243.51-35.71 243.78-35.08 243.78-34.38L243.78-34.38Q243.78-33.64 243.5-33.02 243.22-32.4 242.72-31.95 242.22-31.49 241.56-31.24 240.9-30.98 240.14-30.98ZM270.02-5.32L270.02-2.37Q268.29-0.98 266.16-0.24 264.04 0.49 261.6 0.49L261.6 0.49Q258.86 0.49 256.67-0.43 254.47-1.34 252.93-2.97 251.39-4.59 250.56-6.85 249.73-9.11 249.73-11.82L249.73-11.82Q249.73-15.01 250.86-17.69 251.98-20.36 253.92-22.29 255.86-24.22 258.5-25.29 261.13-26.37 264.16-26.37L264.16-26.37Q264.82-26.37 265.58-26.31 266.33-26.25 267.13-26.12 267.92-26 268.69-25.79 269.46-25.59 270.12-25.29L270.12-25.29 269.07-20.75 268.56-20.51Q268.12-20.83 267.52-21.13 266.92-21.44 266.24-21.66 265.55-21.88 264.82-22.01 264.09-22.14 263.38-22.14L263.38-22.14Q261.82-22.14 260.46-21.53 259.11-20.92 258.1-19.75 257.08-18.58 256.5-16.88 255.91-15.19 255.91-13.04L255.91-13.04Q255.91-10.79 256.54-9.11 257.18-7.42 258.3-6.29 259.43-5.15 260.96-4.58 262.5-4 264.31-4L264.31-4Q265.43-4 266.87-4.27 268.31-4.54 270.02-5.32L270.02-5.32ZM297.66-5.32L297.66-2.37Q296.58-1.61 295.34-1.07 294.09-0.54 292.77-0.18 291.45 0.17 290.15 0.33 288.84 0.49 287.67 0.49L287.67 0.49Q284.96 0.49 282.63-0.34 280.3-1.17 278.58-2.78 276.85-4.39 275.88-6.75 274.9-9.11 274.9-12.16L274.9-12.16Q274.9-15.41 276-18.04 277.1-20.68 278.94-22.52 280.79-24.37 283.21-25.37 285.64-26.37 288.28-26.37L288.28-26.37Q290.48-26.37 292.37-25.65 294.26-24.93 295.64-23.51 297.02-22.09 297.8-19.97 298.58-17.85 298.58-15.04L298.58-15.04Q298.58-14.36 298.52-13.59 298.46-12.82 298.31-12.08L298.31-12.08 281.03-12.08Q281.03-10.11 281.73-8.59 282.42-7.08 283.69-6.07 284.96-5.05 286.74-4.53 288.52-4 290.67-4L290.67-4Q291.28-4 292.1-4.05 292.92-4.1 293.85-4.25 294.77-4.39 295.75-4.65 296.73-4.91 297.66-5.32L297.66-5.32ZM281.03-14.97L293.09-14.97Q293.09-16.75 292.64-18.09 292.19-19.43 291.41-20.34 290.62-21.24 289.59-21.69 288.55-22.14 287.35-22.14L287.35-22.14Q286.01-22.14 284.86-21.61 283.72-21.07 282.86-20.1 282.01-19.14 281.52-17.82 281.03-16.5 281.03-14.97L281.03-14.97ZM303.71-1.22L304.76-5.66 305.2-5.93Q306.15-5.42 307.19-5 308.22-4.59 309.25-4.31 310.28-4.03 311.25-3.88 312.23-3.74 313.08-3.74L313.08-3.74Q315.3-3.74 316.56-4.66 317.82-5.59 317.82-7.03L317.82-7.03Q317.82-8.01 317.25-8.64 316.67-9.28 315.73-9.73 314.79-10.18 313.6-10.52 312.4-10.86 311.14-11.24 309.88-11.62 308.69-12.11 307.49-12.6 306.55-13.35 305.61-14.11 305.04-15.2 304.46-16.28 304.46-17.87L304.46-17.87Q304.46-19.65 305.23-21.22 306-22.78 307.43-23.91 308.86-25.05 310.9-25.71 312.94-26.37 315.48-26.37L315.48-26.37Q316.11-26.37 316.95-26.32 317.79-26.27 318.71-26.16 319.63-26.05 320.55-25.88 321.48-25.71 322.29-25.44L322.29-25.44 321.21-21.07 320.68-20.75Q319.94-21.12 319.1-21.39 318.26-21.66 317.42-21.81 316.57-21.97 315.78-22.06 314.99-22.14 314.38-22.14L314.38-22.14Q312.23-22.14 311.02-21.29 309.81-20.43 309.81-18.99L309.81-18.99Q309.81-17.99 310.4-17.35 310.98-16.7 311.92-16.25 312.86-15.8 314.08-15.47 315.3-15.14 316.56-14.76 317.82-14.38 319.04-13.89 320.26-13.4 321.2-12.65 322.14-11.89 322.73-10.79 323.31-9.69 323.31-8.08L323.31-8.08Q323.31-6.27 322.53-4.7 321.75-3.13 320.31-1.98 318.87-0.83 316.84-0.17 314.82 0.49 312.35 0.49L312.35 0.49Q310.32 0.49 308.05 0.05 305.78-0.39 303.71-1.22L303.71-1.22ZM340.47-8.62L340.47-25.88 346.38-25.88 346.38-9.55Q346.38-8.3 346.72-7.29 347.06-6.27 347.67-5.54 348.28-4.81 349.14-4.41 349.99-4 351.02-4L351.02-4Q351.9-4 352.74-4.3 353.58-4.59 354.36-5.07 355.14-5.54 355.85-6.16 356.56-6.79 357.19-7.47L357.19-7.47 357.19-25.88 363.1-25.88 363.1 0 358.32 0 357.44-4.37Q356.56-3.56 355.53-2.7 354.51-1.83 353.36-1.12 352.21-0.42 350.93 0.04 349.65 0.49 348.26 0.49L348.26 0.49Q346.67 0.49 345.26-0.15 343.84-0.78 342.78-1.95 341.72-3.13 341.09-4.81 340.47-6.49 340.47-8.62L340.47-8.62ZM371.25 0L371.25-25.88 376.04-25.88 376.87-21.46Q377.72-22.24 378.8-23.11 379.87-23.97 381.14-24.69 382.41-25.42 383.82-25.89 385.22-26.37 386.73-26.37L386.73-26.37Q388.51-26.37 389.97-25.7 391.42-25.02 392.45-23.82 393.47-22.61 394.03-20.92 394.59-19.24 394.59-17.24L394.59-17.24 394.59 0 388.66 0 388.66-16.53Q388.66-17.85 388.3-18.85 387.93-19.85 387.28-20.51 386.63-21.17 385.74-21.51 384.85-21.85 383.83-21.85L383.83-21.85Q382.02-21.85 380.41-20.92 378.8-20 377.16-18.48L377.16-18.48 377.16 0 371.25 0ZM402.72 0L402.72-25.88 408.65-25.88 408.65 0 402.72 0ZM405.68-30.98L405.68-30.98Q404.89-30.98 404.25-31.24 403.6-31.49 403.12-31.93 402.65-32.37 402.39-32.98 402.14-33.59 402.14-34.3L402.14-34.3Q402.14-35.03 402.42-35.66 402.7-36.28 403.2-36.76 403.7-37.23 404.37-37.5 405.04-37.77 405.82-37.77L405.82-37.77Q406.58-37.77 407.21-37.5 407.85-37.23 408.31-36.78 408.78-36.33 409.04-35.71 409.31-35.08 409.31-34.38L409.31-34.38Q409.31-33.64 409.03-33.02 408.75-32.4 408.25-31.95 407.75-31.49 407.09-31.24 406.43-30.98 405.68-30.98ZM419.05-7.15L419.05-21.66 413.85-21.66 414.29-24.44Q416.22-24.93 417.38-25.54 418.54-26.15 419.31-27.04 420.08-27.93 420.65-29.21 421.22-30.49 421.98-32.32L421.98-32.32 424.81-32.32 424.81-25.88 434.12-25.88 433.07-21.66 424.98-21.66 424.98-8.33Q424.98-7.13 425.33-6.31 425.67-5.49 426.3-4.98 426.94-4.47 427.83-4.24 428.72-4 429.84-4L429.84-4Q430.92-4 431.98-4.2 433.04-4.39 433.99-4.76L433.99-4.76 433.99-1.78Q432.33-0.66 430.44-0.09 428.55 0.49 426.62 0.49L426.62 0.49Q422.93 0.49 420.99-1.51 419.05-3.52 419.05-7.15L419.05-7.15ZM461.24-5.32L461.24-2.37Q460.16-1.61 458.92-1.07 457.67-0.54 456.35-0.18 455.04 0.17 453.73 0.33 452.42 0.49 451.25 0.49L451.25 0.49Q448.54 0.49 446.21-0.34 443.88-1.17 442.16-2.78 440.44-4.39 439.46-6.75 438.48-9.11 438.48-12.16L438.48-12.16Q438.48-15.41 439.58-18.04 440.68-20.68 442.52-22.52 444.37-24.37 446.8-25.37 449.23-26.37 451.86-26.37L451.86-26.37Q454.06-26.37 455.95-25.65 457.84-24.93 459.22-23.51 460.6-22.09 461.38-19.97 462.16-17.85 462.16-15.04L462.16-15.04Q462.16-14.36 462.1-13.59 462.04-12.82 461.9-12.08L461.9-12.08 444.61-12.08Q444.61-10.11 445.31-8.59 446-7.08 447.27-6.07 448.54-5.05 450.32-4.53 452.11-4 454.25-4L454.25-4Q454.86-4 455.68-4.05 456.5-4.1 457.43-4.25 458.36-4.39 459.33-4.65 460.31-4.91 461.24-5.32L461.24-5.32ZM444.61-14.97L456.67-14.97Q456.67-16.75 456.22-18.09 455.77-19.43 454.99-20.34 454.21-21.24 453.17-21.69 452.13-22.14 450.93-22.14L450.93-22.14Q449.59-22.14 448.44-21.61 447.3-21.07 446.44-20.1 445.59-19.14 445.1-17.82 444.61-16.5 444.61-14.97L444.61-14.97ZM493.53-3.81L493.53-3.81Q492.9-3.27 492.01-2.53 491.11-1.78 490.03-1.11 488.94-0.44 487.66 0.02 486.38 0.49 484.96 0.49L484.96 0.49Q483.52 0.49 482.29-0.04 481.06-0.56 480.14-1.5 479.22-2.44 478.7-3.75 478.18-5.05 478.18-6.64L478.18-6.64Q478.18-8.3 478.85-9.89 479.52-11.47 481.09-12.72 482.67-13.96 485.26-14.73 487.84-15.5 491.65-15.5L491.65-15.5 493.43-15.5 493.43-17.5Q493.43-18.58 493.07-19.43 492.7-20.29 492.04-20.9 491.38-21.51 490.47-21.83 489.55-22.14 488.43-22.14L488.43-22.14Q487.55-22.14 486.55-21.94 485.55-21.73 484.57-21.36 483.6-21 482.67-20.5 481.74-20 481.01-19.41L481.01-19.41 480.57-19.65 479.44-23.75Q482.4-25.29 484.94-25.83 487.48-26.37 489.7-26.37L489.7-26.37Q491.99-26.37 493.79-25.9 495.58-25.44 496.83-24.48 498.07-23.51 498.72-22.03 499.37-20.56 499.37-18.53L499.37-18.53 499.37-6.57Q499.37-6.2 499.43-5.76 499.49-5.32 499.67-4.93 499.85-4.54 500.21-4.27 500.56-4 501.15-4L501.15-4Q501.49-4 501.98-4.1 502.47-4.2 502.96-4.42L502.96-4.42 502.96-1.49Q501.64-0.59 500.33-0.05 499.02 0.49 497.78 0.49L497.78 0.49Q496.8 0.49 496.1 0.12 495.39-0.24 494.9-0.84 494.41-1.44 494.08-2.21 493.75-2.98 493.53-3.81ZM493.43-6.96L493.43-12.62 491.9-12.62Q489.36-12.62 487.81-12.27 486.26-11.91 485.4-11.29 484.55-10.67 484.27-9.85 483.99-9.03 483.99-8.08L483.99-8.08Q483.99-7.08 484.28-6.32 484.57-5.57 485.07-5.05 485.57-4.54 486.26-4.27 486.94-4 487.72-4L487.72-4Q488.31-4 488.94-4.14 489.58-4.27 490.27-4.61 490.97-4.96 491.75-5.52 492.53-6.08 493.43-6.96L493.43-6.96ZM508.23 0L508.23-25.88 513.01-25.88 513.84-21.46Q514.7-22.24 515.77-23.11 516.84-23.97 518.11-24.69 519.38-25.42 520.79-25.89 522.19-26.37 523.7-26.37L523.7-26.37Q525.49-26.37 526.94-25.7 528.39-25.02 529.42-23.82 530.44-22.61 531-20.92 531.57-19.24 531.57-17.24L531.57-17.24 531.57 0 525.63 0 525.63-16.53Q525.63-17.85 525.27-18.85 524.9-19.85 524.25-20.51 523.61-21.17 522.72-21.51 521.83-21.85 520.8-21.85L520.8-21.85Q518.99-21.85 517.38-20.92 515.77-20 514.13-18.48L514.13-18.48 514.13 0 508.23 0ZM557.47-7.45L557.47-21.07Q555.88-21.75 554.62-21.95 553.37-22.14 552.56-22.14L552.56-22.14Q550.58-22.14 549.03-21.44 547.48-20.73 546.43-19.48 545.38-18.24 544.83-16.52 544.28-14.79 544.28-12.77L544.28-12.77Q544.28-10.94 544.75-9.35 545.21-7.76 546.07-6.57 546.92-5.37 548.13-4.69 549.34-4 550.83-4L550.83-4Q552.58-4 554.26-4.92 555.93-5.83 557.47-7.45L557.47-7.45ZM557.47-25.76L557.47-39.11 563.4-39.11 563.4 0 558.57 0 557.76-4.32Q556.91-3.54 555.89-2.7 554.88-1.86 553.68-1.15 552.49-0.44 551.11 0.02 549.73 0.49 548.17 0.49L548.17 0.49Q545.82 0.49 543.97-0.55 542.11-1.59 540.8-3.31 539.5-5.03 538.81-7.25 538.13-9.47 538.13-11.84L538.13-11.84Q538.13-14.97 539.27-17.63 540.4-20.29 542.38-22.23 544.36-24.17 547.02-25.27 549.68-26.37 552.73-26.37L552.73-26.37Q554.12-26.37 555.36-26.17 556.59-25.98 557.47-25.76L557.47-25.76ZM582.19 0L582.19-25.88 586.98-25.88 587.81-21.46Q588.66-22.24 589.73-23.11 590.79-23.97 592-24.69 593.2-25.42 594.51-25.89 595.82-26.37 597.13-26.37L597.13-26.37Q598.31-26.37 599.41-25.99 600.5-25.61 601.43-24.95 602.36-24.29 603.07-23.38 603.78-22.46 604.17-21.36L604.17-21.36Q605.12-22.17 606.17-23.06 607.22-23.95 608.41-24.68 609.61-25.42 610.94-25.89 612.27-26.37 613.79-26.37L613.79-26.37Q615.59-26.37 617.03-25.66 618.47-24.95 619.49-23.72 620.5-22.49 621.05-20.81 621.6-19.14 621.6-17.19L621.6-17.19 621.6 0 615.67 0 615.67-16.53Q615.67-18.99 614.42-20.42 613.17-21.85 611.08-21.85L611.08-21.85Q610.2-21.85 609.4-21.59 608.61-21.34 607.85-20.89 607.1-20.43 606.34-19.8 605.58-19.17 604.78-18.43L604.78-18.43Q604.83-18.14 604.83-17.85 604.83-17.55 604.83-17.19L604.83-17.19 604.83 0 598.92 0 598.92-16.53Q598.92-17.75 598.58-18.74 598.23-19.73 597.62-20.42 597.01-21.12 596.16-21.48 595.3-21.85 594.28-21.85L594.28-21.85Q593.42-21.85 592.64-21.59 591.86-21.34 591.12-20.89 590.37-20.43 589.63-19.82 588.88-19.21 588.1-18.48L588.1-18.48 588.1 0 582.19 0ZM651.06-5.32L651.06-2.37Q649.99-1.61 648.74-1.07 647.5-0.54 646.18-0.18 644.86 0.17 643.56 0.33 642.25 0.49 641.08 0.49L641.08 0.49Q638.37 0.49 636.04-0.34 633.7-1.17 631.98-2.78 630.26-4.39 629.29-6.75 628.31-9.11 628.31-12.16L628.31-12.16Q628.31-15.41 629.41-18.04 630.51-20.68 632.35-22.52 634.19-24.37 636.62-25.37 639.05-26.37 641.69-26.37L641.69-26.37Q643.89-26.37 645.78-25.65 647.67-24.93 649.05-23.51 650.43-22.09 651.21-19.97 651.99-17.85 651.99-15.04L651.99-15.04Q651.99-14.36 651.93-13.59 651.87-12.82 651.72-12.08L651.72-12.08 634.44-12.08Q634.44-10.11 635.13-8.59 635.83-7.08 637.1-6.07 638.37-5.05 640.15-4.53 641.93-4 644.08-4L644.08-4Q644.69-4 645.51-4.05 646.33-4.1 647.25-4.25 648.18-4.39 649.16-4.65 650.14-4.91 651.06-5.32L651.06-5.32ZM634.44-14.97L646.5-14.97Q646.5-16.75 646.05-18.09 645.59-19.43 644.81-20.34 644.03-21.24 642.99-21.69 641.96-22.14 640.76-22.14L640.76-22.14Q639.42-22.14 638.27-21.61 637.12-21.07 636.27-20.1 635.41-19.14 634.93-17.82 634.44-16.5 634.44-14.97L634.44-14.97ZM658.75 0L658.75-39.11 664.66-39.11 664.66 0 658.75 0ZM683.75 0.49L683.75 0.49Q680.7 0.49 678.37-0.54 676.03-1.56 674.45-3.31 672.86-5.05 672.04-7.35 671.22-9.64 671.22-12.21L671.22-12.21Q671.22-15.16 672.27-17.74 673.32-20.31 675.22-22.23 677.11-24.15 679.72-25.26 682.33-26.37 685.46-26.37L685.46-26.37Q688.51-26.37 690.85-25.34 693.2-24.32 694.78-22.56 696.37-20.8 697.19-18.49 698.01-16.19 698.01-13.62L698.01-13.62Q698.01-10.64 696.94-8.07 695.88-5.49 693.98-3.59 692.07-1.68 689.46-0.6 686.85 0.49 683.75 0.49ZM684.77-3.74L684.77-3.74Q686.34-3.74 687.63-4.38 688.92-5.03 689.85-6.19 690.78-7.35 691.29-8.96 691.81-10.57 691.81-12.52L691.81-12.52Q691.81-14.43 691.3-16.16 690.8-17.9 689.85-19.23 688.9-20.56 687.53-21.35 686.17-22.14 684.43-22.14L684.43-22.14Q682.85-22.14 681.55-21.48 680.26-20.83 679.34-19.65 678.43-18.48 677.91-16.86 677.4-15.23 677.4-13.31L677.4-13.31Q677.4-11.38 677.9-9.64 678.4-7.91 679.35-6.59 680.31-5.27 681.67-4.5 683.04-3.74 684.77-3.74ZM722.34-7.45L722.34-21.07Q720.76-21.75 719.5-21.95 718.24-22.14 717.44-22.14L717.44-22.14Q715.46-22.14 713.91-21.44 712.36-20.73 711.31-19.48 710.26-18.24 709.71-16.52 709.16-14.79 709.16-12.77L709.16-12.77Q709.16-10.94 709.62-9.35 710.09-7.76 710.94-6.57 711.8-5.37 713.01-4.69 714.21-4 715.7-4L715.7-4Q717.46-4 719.13-4.92 720.81-5.83 722.34-7.45L722.34-7.45ZM722.34-25.76L722.34-39.11 728.28-39.11 728.28 0 723.44 0 722.64-4.32Q721.78-3.54 720.77-2.7 719.76-1.86 718.56-1.15 717.36-0.44 715.98 0.02 714.61 0.49 713.04 0.49L713.04 0.49Q710.7 0.49 708.84-0.55 706.99-1.59 705.68-3.31 704.38-5.03 703.69-7.25 703.01-9.47 703.01-11.84L703.01-11.84Q703.01-14.97 704.14-17.63 705.28-20.29 707.26-22.23 709.23-24.17 711.9-25.27 714.56-26.37 717.61-26.37L717.61-26.37Q719-26.37 720.23-26.17 721.47-25.98 722.34-25.76L722.34-25.76ZM736.4 0L736.4-25.88 742.34-25.88 742.34 0 736.4 0ZM739.36-30.98L739.36-30.98Q738.58-30.98 737.93-31.24 737.28-31.49 736.81-31.93 736.33-32.37 736.08-32.98 735.82-33.59 735.82-34.3L735.82-34.3Q735.82-35.03 736.1-35.66 736.38-36.28 736.88-36.76 737.38-37.23 738.05-37.5 738.72-37.77 739.51-37.77L739.51-37.77Q740.26-37.77 740.9-37.5 741.53-37.23 742-36.78 742.46-36.33 742.73-35.71 743-35.08 743-34.38L743-34.38Q743-33.64 742.72-33.02 742.43-32.4 741.93-31.95 741.43-31.49 740.77-31.24 740.12-30.98 739.36-30.98ZM771.7-5.32L771.7-2.37Q770.63-1.61 769.39-1.07 768.14-0.54 766.82-0.18 765.5 0.17 764.2 0.33 762.89 0.49 761.72 0.49L761.72 0.49Q759.01 0.49 756.68-0.34 754.35-1.17 752.63-2.78 750.9-4.39 749.93-6.75 748.95-9.11 748.95-12.16L748.95-12.16Q748.95-15.41 750.05-18.04 751.15-20.68 752.99-22.52 754.83-24.37 757.26-25.37 759.69-26.37 762.33-26.37L762.33-26.37Q764.53-26.37 766.42-25.65 768.31-24.93 769.69-23.51 771.07-22.09 771.85-19.97 772.63-17.85 772.63-15.04L772.63-15.04Q772.63-14.36 772.57-13.59 772.51-12.82 772.36-12.08L772.36-12.08 755.08-12.08Q755.08-10.11 755.77-8.59 756.47-7.08 757.74-6.07 759.01-5.05 760.79-4.53 762.57-4 764.72-4L764.72-4Q765.33-4 766.15-4.05 766.97-4.1 767.9-4.25 768.82-4.39 769.8-4.65 770.78-4.91 771.7-5.32L771.7-5.32ZM755.08-14.97L767.14-14.97Q767.14-16.75 766.69-18.09 766.24-19.43 765.45-20.34 764.67-21.24 763.64-21.69 762.6-22.14 761.4-22.14L761.4-22.14Q760.06-22.14 758.91-21.61 757.76-21.07 756.91-20.1 756.06-19.14 755.57-17.82 755.08-16.5 755.08-14.97L755.08-14.97ZM777.76-1.22L778.81-5.66 779.25-5.93Q780.2-5.42 781.24-5 782.27-4.59 783.3-4.31 784.32-4.03 785.3-3.88 786.28-3.74 787.13-3.74L787.13-3.74Q789.35-3.74 790.61-4.66 791.87-5.59 791.87-7.03L791.87-7.03Q791.87-8.01 791.29-8.64 790.72-9.28 789.78-9.73 788.84-10.18 787.64-10.52 786.45-10.86 785.19-11.24 783.93-11.62 782.74-12.11 781.54-12.6 780.6-13.35 779.66-14.11 779.09-15.2 778.51-16.28 778.51-17.87L778.51-17.87Q778.51-19.65 779.28-21.22 780.05-22.78 781.48-23.91 782.91-25.05 784.95-25.71 786.99-26.37 789.52-26.37L789.52-26.37Q790.16-26.37 791-26.32 791.84-26.27 792.76-26.16 793.67-26.05 794.6-25.88 795.53-25.71 796.34-25.44L796.34-25.44 795.26-21.07 794.72-20.75Q793.99-21.12 793.15-21.39 792.31-21.66 791.47-21.81 790.62-21.97 789.83-22.06 789.04-22.14 788.43-22.14L788.43-22.14Q786.28-22.14 785.07-21.29 783.86-20.43 783.86-18.99L783.86-18.99Q783.86-17.99 784.45-17.35 785.03-16.7 785.97-16.25 786.91-15.8 788.13-15.47 789.35-15.14 790.61-14.76 791.87-14.38 793.09-13.89 794.31-13.4 795.25-12.65 796.19-11.89 796.78-10.79 797.36-9.69 797.36-8.08L797.36-8.08Q797.36-6.27 796.58-4.7 795.8-3.13 794.36-1.98 792.92-0.83 790.89-0.17 788.87 0.49 786.4 0.49L786.4 0.49Q784.37 0.49 782.1 0.05 779.83-0.39 777.76-1.22L777.76-1.22ZM816.72-7.15L816.72-21.66 811.52-21.66 811.96-24.44Q813.88-24.93 815.04-25.54 816.2-26.15 816.97-27.04 817.74-27.93 818.32-29.21 818.89-30.49 819.65-32.32L819.65-32.32 822.48-32.32 822.48-25.88 831.78-25.88 830.73-21.66 822.65-21.66 822.65-8.33Q822.65-7.13 822.99-6.31 823.33-5.49 823.97-4.98 824.6-4.47 825.49-4.24 826.38-4 827.51-4L827.51-4Q828.58-4 829.64-4.2 830.71-4.39 831.66-4.76L831.66-4.76 831.66-1.78Q830-0.66 828.11-0.09 826.21 0.49 824.29 0.49L824.29 0.49Q820.6 0.49 818.66-1.51 816.72-3.52 816.72-7.15L816.72-7.15ZM852.31-3.81L852.31-3.81Q851.68-3.27 850.78-2.53 849.89-1.78 848.81-1.11 847.72-0.44 846.44 0.02 845.16 0.49 843.74 0.49L843.74 0.49Q842.3 0.49 841.07-0.04 839.83-0.56 838.92-1.5 838-2.44 837.48-3.75 836.95-5.05 836.95-6.64L836.95-6.64Q836.95-8.3 837.63-9.89 838.3-11.47 839.87-12.72 841.45-13.96 844.03-14.73 846.62-15.5 850.43-15.5L850.43-15.5 852.21-15.5 852.21-17.5Q852.21-18.58 851.85-19.43 851.48-20.29 850.82-20.9 850.16-21.51 849.25-21.83 848.33-22.14 847.21-22.14L847.21-22.14Q846.33-22.14 845.33-21.94 844.33-21.73 843.35-21.36 842.37-21 841.45-20.5 840.52-20 839.79-19.41L839.79-19.41 839.35-19.65 838.22-23.75Q841.18-25.29 843.72-25.83 846.26-26.37 848.48-26.37L848.48-26.37Q850.77-26.37 852.57-25.9 854.36-25.44 855.61-24.48 856.85-23.51 857.5-22.03 858.15-20.56 858.15-18.53L858.15-18.53 858.15-6.57Q858.15-6.2 858.21-5.76 858.27-5.32 858.45-4.93 858.63-4.54 858.99-4.27 859.34-4 859.93-4L859.93-4Q860.27-4 860.76-4.1 861.25-4.2 861.73-4.42L861.73-4.42 861.73-1.49Q860.42-0.59 859.11-0.05 857.8 0.49 856.56 0.49L856.56 0.49Q855.58 0.49 854.87 0.12 854.17-0.24 853.68-0.84 853.19-1.44 852.86-2.21 852.53-2.98 852.31-3.81ZM852.21-6.96L852.21-12.62 850.67-12.62Q848.14-12.62 846.58-12.27 845.03-11.91 844.18-11.29 843.33-10.67 843.04-9.85 842.76-9.03 842.76-8.08L842.76-8.08Q842.76-7.08 843.06-6.32 843.35-5.57 843.85-5.05 844.35-4.54 845.03-4.27 845.72-4 846.5-4L846.5-4Q847.09-4 847.72-4.14 848.35-4.27 849.05-4.61 849.75-4.96 850.53-5.52 851.31-6.08 852.21-6.96L852.21-6.96ZM867 0L867-39.11 872.91-39.11 872.91 0 867 0ZM891.15 0L884 0 874.35-13.65 884.41-25.81 890.39-25.81 880.24-14.38 891.15 0ZM916.81-5.32L916.81-2.37Q915.73-1.61 914.49-1.07 913.24-0.54 911.92-0.18 910.61 0.17 909.3 0.33 907.99 0.49 906.82 0.49L906.82 0.49Q904.11 0.49 901.78-0.34 899.45-1.17 897.73-2.78 896.01-4.39 895.03-6.75 894.05-9.11 894.05-12.16L894.05-12.16Q894.05-15.41 895.15-18.04 896.25-20.68 898.09-22.52 899.94-24.37 902.37-25.37 904.8-26.37 907.43-26.37L907.43-26.37Q909.63-26.37 911.52-25.65 913.41-24.93 914.79-23.51 916.17-22.09 916.95-19.97 917.73-17.85 917.73-15.04L917.73-15.04Q917.73-14.36 917.67-13.59 917.61-12.82 917.47-12.08L917.47-12.08 900.18-12.08Q900.18-10.11 900.88-8.59 901.57-7.08 902.84-6.07 904.11-5.05 905.89-4.53 907.68-4 909.82-4L909.82-4Q910.43-4 911.25-4.05 912.07-4.1 913-4.25 913.93-4.39 914.9-4.65 915.88-4.91 916.81-5.32L916.81-5.32ZM900.18-14.97L912.24-14.97Q912.24-16.75 911.79-18.09 911.34-19.43 910.56-20.34 909.78-21.24 908.74-21.69 907.7-22.14 906.5-22.14L906.5-22.14Q905.16-22.14 904.01-21.61 902.87-21.07 902.01-20.1 901.16-19.14 900.67-17.82 900.18-16.5 900.18-14.97L900.18-14.97ZM937.33 0L937.33-21.66 932.13-21.66 932.57-24.63 937.36-25.88 937.36-27Q937.36-29.59 938.14-31.87 938.92-34.16 940.4-35.88 941.88-37.6 944.05-38.6 946.22-39.6 949-39.6L949-39.6Q950.08-39.6 951.26-39.44 952.45-39.28 953.55-38.94L953.55-38.94 952.54-34.72 952.06-34.47Q951.3-34.89 950.41-35.13 949.52-35.38 948.54-35.38L948.54-35.38Q947.12-35.38 946.12-34.81 945.12-34.25 944.49-33.26 943.85-32.28 943.56-30.92 943.27-29.57 943.27-27.98L943.27-27.98 943.27-25.88 951.86-25.88 950.81-21.66 943.27-21.66 943.27 0 937.33 0ZM957.79 0L957.79-39.11 963.7-39.11 963.7 0 957.79 0ZM971.83 0L971.83-25.88 977.76-25.88 977.76 0 971.83 0ZM974.78-30.98L974.78-30.98Q974-30.98 973.35-31.24 972.71-31.49 972.23-31.93 971.75-32.37 971.5-32.98 971.24-33.59 971.24-34.3L971.24-34.3Q971.24-35.03 971.52-35.66 971.8-36.28 972.3-36.76 972.8-37.23 973.47-37.5 974.15-37.77 974.93-37.77L974.93-37.77Q975.68-37.77 976.32-37.5 976.95-37.23 977.42-36.78 977.88-36.33 978.15-35.71 978.42-35.08 978.42-34.38L978.42-34.38Q978.42-33.64 978.14-33.02 977.86-32.4 977.36-31.95 976.86-31.49 976.2-31.24 975.54-30.98 974.78-30.98ZM998.97 1.78L993.06 1.78Q992.5 2.1 991.89 2.51 991.28 2.93 990.76 3.43 990.23 3.93 989.89 4.53 989.55 5.13 989.55 5.81L989.55 5.81Q989.55 6.54 989.98 7.18 990.4 7.81 991.25 8.29 992.09 8.76 993.33 9.05 994.58 9.33 996.19 9.33L996.19 9.33Q998.04 9.33 999.48 8.96 1000.93 8.59 1001.91 7.97 1002.9 7.35 1003.42 6.54 1003.93 5.74 1003.93 4.86L1003.93 4.86Q1003.93 4.08 1003.54 3.5 1003.15 2.93 1002.48 2.54 1001.8 2.15 1000.9 1.97 1000 1.78 998.97 1.78L998.97 1.78ZM989.45 1.29L989.45 1.29Q987.77 0.71 986.7-0.26 985.64-1.22 985.64-2.54L985.64-2.54Q985.64-3.34 986.07-4.08 986.5-4.81 987.19-5.47 987.89-6.13 988.77-6.73 989.65-7.32 990.55-7.89L990.55-7.89Q989.04-8.54 987.97-9.45 986.91-10.35 986.24-11.43 985.57-12.5 985.26-13.7 984.96-14.89 984.96-16.11L984.96-16.11Q984.96-18.46 985.96-20.35 986.96-22.24 988.61-23.58 990.26-24.93 992.37-25.65 994.48-26.37 996.73-26.37L996.73-26.37Q998.41-26.37 1000.05-25.95 1001.68-25.54 1002.81-24.83L1002.81-24.83Q1003.59-25.27 1004.88-25.57 1006.17-25.88 1007.57-25.88L1007.57-25.88 1011.72-25.88 1010.67-21.68 1005.42-21.68Q1005.56-21.53 1005.86-21.11 1006.15-20.68 1006.42-20.04 1006.69-19.41 1006.89-18.59 1007.1-17.77 1007.1-16.85L1007.1-16.85Q1007.1-14.79 1006.14-13.02 1005.17-11.25 1003.57-9.95 1001.98-8.64 999.91-7.9 997.85-7.15 995.68-7.15L995.68-7.15Q995.21-7.15 994.75-7.19 994.28-7.23 993.8-7.28L993.8-7.28Q993.41-7.03 992.97-6.73 992.53-6.42 992.16-6.07 991.79-5.71 991.55-5.3 991.31-4.88 991.31-4.44L991.31-4.44Q991.31-3.69 991.99-3.22 992.67-2.76 993.87-2.76L993.87-2.76 1000.46-2.76Q1002.22-2.76 1003.84-2.33 1005.47-1.9 1006.7-1.09 1007.93-0.27 1008.68 0.92 1009.42 2.1 1009.42 3.61L1009.42 3.61Q1009.42 5.3 1008.46 7.07 1007.49 8.84 1005.61 10.29 1003.73 11.74 1000.97 12.66 998.22 13.57 994.63 13.57L994.63 13.57Q992.33 13.57 990.37 13.17 988.4 12.77 986.95 12.02 985.5 11.28 984.68 10.22 983.86 9.16 983.86 7.84L983.86 7.84Q983.86 6.67 984.47 5.66 985.08 4.66 985.96 3.83 986.84 3 987.79 2.37 988.74 1.73 989.45 1.29ZM990.4-16.89L990.4-16.89Q990.4-15.65 990.83-14.59 991.26-13.53 992.03-12.73 992.8-11.94 993.83-11.5 994.87-11.06 996.12-11.06L996.12-11.06Q997.29-11.06 998.31-11.46 999.34-11.87 1000.1-12.6 1000.85-13.33 1001.29-14.37 1001.73-15.41 1001.73-16.67L1001.73-16.67Q1001.73-17.92 1001.3-18.97 1000.88-20.02 1000.11-20.79 999.34-21.56 998.29-22 997.24-22.44 995.99-22.44L995.99-22.44Q994.82-22.44 993.81-22.05 992.8-21.66 992.04-20.94 991.28-20.21 990.84-19.19 990.4-18.16 990.4-16.89ZM1016.35 0L1016.35-39.11 1022.26-39.11 1022.26-21.7Q1023.16-22.51 1024.25-23.33 1025.34-24.15 1026.55-24.83 1027.75-25.51 1029.1-25.94 1030.44-26.37 1031.88-26.37L1031.88-26.37Q1033.64-26.37 1035.08-25.71 1036.52-25.05 1037.54-23.85 1038.57-22.66 1039.13-20.97 1039.69-19.29 1039.69-17.24L1039.69-17.24 1039.69 0 1033.76 0 1033.76-16.58Q1033.76-17.9 1033.39-18.88 1033.03-19.87 1032.39-20.53 1031.76-21.19 1030.87-21.52 1029.98-21.85 1028.95-21.85L1028.95-21.85Q1027.14-21.85 1025.53-20.92 1023.92-20 1022.26-18.48L1022.26-18.48 1022.26 0 1016.35 0ZM1049.8-7.15L1049.8-21.66 1044.6-21.66 1045.04-24.44Q1046.97-24.93 1048.12-25.54 1049.28-26.15 1050.05-27.04 1050.82-27.93 1051.4-29.21 1051.97-30.49 1052.73-32.32L1052.73-32.32 1055.56-32.32 1055.56-25.88 1064.86-25.88 1063.81-21.66 1055.73-21.66 1055.73-8.33Q1055.73-7.13 1056.07-6.31 1056.41-5.49 1057.05-4.98 1057.68-4.47 1058.57-4.24 1059.47-4 1060.59-4L1060.59-4Q1061.66-4 1062.72-4.2 1063.79-4.39 1064.74-4.76L1064.74-4.76 1064.74-1.78Q1063.08-0.66 1061.19-0.09 1059.29 0.49 1057.37 0.49L1057.37 0.49Q1053.68 0.49 1051.74-1.51 1049.8-3.52 1049.8-7.15L1049.8-7.15ZM1075.33 0.49L1075.33 0.49Q1074.48 0.49 1073.73 0.16 1072.99-0.17 1072.44-0.72 1071.89-1.27 1071.57-2.01 1071.25-2.76 1071.25-3.59L1071.25-3.59Q1071.25-4.44 1071.58-5.21 1071.91-5.98 1072.48-6.56 1073.04-7.13 1073.78-7.46 1074.53-7.79 1075.38-7.79L1075.38-7.79Q1076.24-7.79 1076.98-7.46 1077.72-7.13 1078.27-6.56 1078.82-5.98 1079.14-5.22 1079.46-4.47 1079.46-3.61L1079.46-3.61Q1079.46-2.76 1079.13-2.01 1078.8-1.27 1078.24-0.72 1077.68-0.17 1076.93 0.16 1076.19 0.49 1075.33 0.49Z" opacity="1" transform="matrix(1,0,0,1,0,0)" fill="#ffffff" class="slogan-text-1" data-fill-palette-color="secondary" id="text-1"></path></svg></g></svg></g></svg></g></svg></g><g><svg viewBox="0 0 222.90187402823608 277.6198255944892" height="277.6198255944892" width="222.90187402823608"><g><svg xmlns="http://www.w3.org/2000/svg" xmlns:xlink="http://www.w3.org/1999/xlink" xml:space="preserve" version="1.1" style="shape-rendering:geometricPrecision;text-rendering:geometricPrecision;image-rendering:optimizeQuality;" viewBox="9.721771171086521 0 80.27822882891348 99.98492827249302" x="0" y="0" fill-rule="evenodd" clip-rule="evenodd" height="277.6198255944892" width="222.90187402823608" class="icon-icon-0" data-fill-palette-color="accent" id="icon-0"><g fill="#ef1f1b" data-fill-palette-color="accent"><path class="" d="M86 24c-3-7-17-7-27-17 0-4 0-7 0-7l-11 0 0 67c-5-2-11-2-18 0-13 3-22 13-20 22 3 9 15 13 29 10 11-3 20-12 20-20l0 0c0 0 0-51 0-55 24 0 24 24 27 24 3 0 4-7 4-14-1-3-2-7-4-10z" fill="#ffffff" fill-rule="nonzero" data-fill-palette-color="accent"></path></g></svg></g></svg></g></svg></g><defs></defs></svg><rect width="395.52" height="172.5145265453554" fill="none" stroke="none" visibility="hidden"></rect></g></svg></g></svg>